<svg id="Layer_1" data-name="Layer 1" xmlns="http://www.w3.org/2000/svg" viewBox="0 0 1082 1081"><defs><style>.cls-1{fill:#e698c0;stroke:#1b1a16;stroke-miterlimit:10;stroke-width:5.17px;}.cls-2{fill:#353532;}</style></defs><circle class="cls-1" cx="540.59" cy="540.47" r="536.26"/><path class="cls-2" d="M241.51,232.51l39.42-32c15.31-12.43,27.47-12.8,34.68-3.91,5.3,6.52,5.09,15.54-1.48,23l.16.2c9.56-5.79,18.35-5.06,24.45,2.44C347,232.41,344,244.49,328,257.49l-39.9,32.4Zm27,19.89,34.47-28c9-7.3,11-16,6.24-21.78-5.45-6.72-14.08-4.63-23.86,3.31l-32.9,26.71Zm4.57,5.63,17.09,21,33.28-27c9.58-7.79,14.55-16.41,8.13-24.31s-16.32-3.95-24,2.3Z"/><path class="cls-2" d="M370.44,228.76,341,160.93l62.7-27.18,2.78,6.43-55,23.83,10.12,23.35,34.44-14.93,2.89,6.66L364.53,194l10.78,24.87,59.42-25.76,2.83,6.54Z"/><path class="cls-2" d="M497.94,187.56l-1.4-73.92,8.4-.16.73,38.55,60.08-39.69,13.87-.27L524.17,148l59.77,37.95-15,.28-52.3-33.38-10.81,7.08.52,27.48Z"/><path class="cls-2" d="M597.31,191.39l12.82-72.81L618.4,120l-12.82,72.81Z"/><path class="cls-2" d="M661.49,128.41l7.43,3L706,213.89l23.39-58.21,7.79,3.13-27.56,68.61-7.44-3-37-82.34-23.34,58.09L633.92,197Z"/><path class="cls-2" d="M779.39,183.79,812,210.44c23.65,19.32,25.22,39.33,11.53,56.08-13.36,16.36-34.06,21-58.3,1.17l-32.62-26.64Zm2.07,10.73-37.83,46.32,26.12,21.33c18.42,15.06,35.58,13,46.77-.73,11.35-13.9,9.29-30.69-8.94-45.58Z"/><path class="cls-2" d="M120.78,572l66.69-5.67-3.05-35.88,7-.59,6.8,80-7,.59-3-35.62-66.69,5.66Z"/><path class="cls-2" d="M163.83,629.21c20.23-7.65,42.61,1.17,54.3,32.12s.79,52.47-19.45,60.12S156,720,144.34,689.21,143.48,636.9,163.83,629.21Zm31.71,83.91c17.13-6.48,25.42-24.16,15.93-49.28s-27.4-32.9-44.54-26.42S141.56,661.7,151,686.69,178.4,719.59,195.54,713.12Z"/><path class="cls-2" d="M256.36,810l4.05-60.5,7.89,8.13-3.64,50.88,51-2,7.27,7.48-60.68,2.16-20.73,20.12-5.93-6.12Z"/><path class="cls-2" d="M306,847.82c10.81-18.74,33.71-26.09,62.37-9.55s33.86,40.11,23,58.84-33.94,26-62.48,9.49S295.1,866.67,306,847.82Zm77.7,44.84c9.16-15.87,4.36-34.8-18.89-48.22s-42.05-8.1-51.21,7.77-4.25,34.86,18.9,48.22S374.52,908.53,383.68,892.66Z"/><path class="cls-2" d="M418.9,914.52l9.27-43.82,8.21,1.74-9.27,43.82c-3.92,18.55,7.89,26.64,26.57,30.59s32.75,1.33,36.67-17.21l9.27-43.82,8.22,1.73-9.27,43.83c-5.53,26.14-27.45,26.44-46.37,22.44S413.37,940.66,418.9,914.52Z"/><path class="cls-2" d="M623.4,954.84a27.69,27.69,0,0,1-10,2.68c-28.52,2.56-18.36-33.74-43.58-31.48L546,928.18l3,33.46-8.37.75L534,888.76l50.06-4.5c15.84-1.42,28.66,3.31,29.92,17.38,1.29,14.32-10.62,21.14-26.33,22.55l-1.91.17,0,.25c13.71,6.18,12.73,26.58,28.45,25.17a33.23,33.23,0,0,0,8.49-2.17ZM543,895l2.36,26.23,42.45-3.81c9.38-.84,18.36-4.71,17.44-15s-10.41-12.09-19.79-11.25Z"/><path class="cls-2" d="M678.05,860.55l44.13-25.1c17.15-9.76,29.2-8.12,34.87,1.83,4.15,7.3,2.46,16.17-5.24,22.45l.13.22c10.37-4.15,18.92-2,23.71,6.42,6.48,11.4,1.56,22.83-16.36,33l-44.68,25.42ZM701.4,884.6l38.6-22c10.06-5.72,13.44-13.94,9.73-20.46-4.28-7.53-13.14-6.88-24.09-.65l-36.83,21Zm3.58,6.31,13.41,23.55,37.27-21.2c10.73-6.1,17-13.79,12-22.64S752.21,864,743.58,869Z"/><path class="cls-2" d="M876.53,796.64a27.39,27.39,0,0,1-5.72,8.61C851.09,826,834.74,792,817.3,810.4l-16.48,17.34,24.35,23.14L819.39,857,765.79,806l34.63-36.44c11-11.53,23.7-16.44,33.94-6.71,10.42,9.9,6,22.89-4.89,34.32l-1.31,1.39.18.17c14.38-4.41,27.12,11.55,38,.11a32.71,32.71,0,0,0,4.94-7.23Zm-99.88,8.13,19.1,18.15L825.11,792c6.49-6.83,10.67-15.67,3.2-22.77s-15.81-2.2-22.29,4.62Z"/><path class="cls-2" d="M897,765.92l-4.19,8-46.52-70.57,2.78-5.3,84.43-1.93-4.6,8.8-23.74.36-21.4,40.93Zm-17.79-26.4,17.81-34-40.25.63Z"/><path class="cls-2" d="M941.43,666.87l-70.74-21.5,2.44-8,70.74,21.5Z"/><path class="cls-2" d="M882.36,609.46l.68-8,68-59.66-62.51-5.26.71-8.37,73.67,6.21-.68,8-67.84,59.54,62.39,5.26-.72,8.49Z"/></svg>