<svg id="Layer_1" data-name="Layer 1" xmlns="http://www.w3.org/2000/svg" viewBox="0 0 1082 1081"><defs><style>.cls-1{fill:#f79b83;stroke:#1b1a16;stroke-miterlimit:10;stroke-width:5.17px;}.cls-2{fill:#353532;}</style></defs><circle class="cls-1" cx="540.59" cy="540.47" r="536.26"/><path class="cls-2" d="M208.82,269.47l5.7-6.17,49,45.38L302,267.12l5.23,4.84-44.17,47.72Z"/><path class="cls-2" d="M319.56,262.52l-40.63-61.77L336,163.21l3.84,5.84L289.79,202l14,21.26,31.36-20.63,4,6.06-31.36,20.63L322.66,252l54.11-35.59,3.91,5.95Z"/><path class="cls-2" d="M420,208l-21.74-63.3-34.05,11.7-2.28-6.62,75.94-26.08,2.27,6.62L406.3,141.94,428,205.24Z"/><path class="cls-2" d="M482.08,110.47c2.18,13.44-4,27.07-15.26,29.15l-.79-4.9c5.62-1.94,11.47-10.36,9.6-21.92l-8.92,1.45-1.93-11.93,15.57-2.53Z"/><path class="cls-2" d="M589.54,133.08c-5.4-8.24-14-14.82-34.9-15.65-17-.68-30.17,2.74-30.57,12.92-.33,8.39,9,11.05,32.93,14.17,21.92,2.66,42.6,4.75,41.86,23.19s-22.42,22.67-41.75,21.89c-26.7-1.06-39.68-11-45.5-21.55l7.37-2.76c6.15,8.78,15.78,16.42,38.54,17.33,18.05.72,32.08-2.93,32.54-14.5.43-10.93-11.82-13.33-34.63-16.28-21.28-2.76-40.82-4.68-40.15-21.34s21.33-20.79,40-20c25.94,1,36.52,10.37,41.62,19.61Z"/><path class="cls-2" d="M692.49,139.12l45.67,22.19c17.74,8.62,23.21,19.48,18.2,29.79-3.67,7.55-11.93,11.17-21.47,8.38l-.11.23c9.29,6.21,12.34,14.48,8.12,23.18-5.73,11.79-17.94,14.2-36.48,5.19l-46.24-22.46ZM682.7,178.5l-11.85,24.38,38.57,18.74c11.1,5.39,21,6.25,25.46-2.91s-3.31-16.46-12.24-20.8Zm3.17-6.52,39.94,19.41c10.41,5.06,19.1,3.19,22.38-3.56,3.78-7.78-1.76-14.72-13.09-20.22L697,149.09Z"/><path class="cls-2" d="M750.47,254.36l48.9-55.45,51.24,45.2L846,249.36,801,209.72,784.2,228.8l28.15,24.83-4.79,5.44-28.15-24.83-17.93,20.33,48.57,42.84-4.71,5.34Z"/><path class="cls-2" d="M186.78,583.74l11.58,49.43c4.5,19.21-.48,30.31-11.63,32.92-8.18,1.91-16.2-2.22-20-11.38l-.25.06c1,11.12-3.45,18.71-12.87,20.92-12.76,3-22.33-5-27-25l-11.73-50ZM150,601l-26.38,6.18,9.78,41.75c2.81,12,8.4,20.25,18.31,17.92s10.69-13,8.42-22.62Zm7.06-1.66,10.13,43.24c2.64,11.27,9.57,16.84,16.88,15.12,8.42-2,10.31-10.64,7.44-22.91l-9.67-41.25Z"/><path class="cls-2" d="M150.16,719.14l64.69-35.79,33.08,59.79-6.12,3.39-29-52.44-22.27,12.32,18.17,32.84-6.35,3.52-18.17-32.85L160.46,723l31.36,56.67-6.24,3.45Z"/><path class="cls-2" d="M297,824.2c1.73-9.7,0-20.43-14.63-35.35-11.93-12.19-23.82-18.71-31.1-11.59-6,5.87-1.06,14.21,14.21,32.91,14.12,17,27.71,32.71,14.52,45.61s-31.86,1.08-45.39-12.75c-18.68-19.1-21.29-35.24-18.28-46.9l7.25,3c-1.56,10.6.2,22.77,16.12,39.05,12.64,12.92,25.34,19.9,33.62,11.8,7.82-7.65.56-17.81-14-35.61C245.7,797.8,232.82,783,244.74,771.34s29.79-.48,42.87,12.89c18.15,18.56,19.43,32.61,16.8,42.84Z"/><path class="cls-2" d="M316.53,905,351,847.62l-30.86-18.56,3.6-6,68.82,41.37-3.61,6L358.32,852l-34.48,57.36Z"/><path class="cls-2" d="M434.22,955.81l13.33-72.71,67.21,12.32-1.26,6.88-58.95-10.81-4.93,26.91,36.92,6.77-1.29,7-36.92-6.77-5.85,31.91Z"/><path class="cls-2" d="M620.1,962.93a27.68,27.68,0,0,1-10,2.59c-28.54,2.28-18-33.92-43.28-31.9L543,935.54,545.66,969l-8.37.67L531.39,896l50.1-4c15.85-1.27,28.62,3.58,29.75,17.65,1.15,14.34-10.83,21-26.55,22.3l-1.91.15,0,.25c13.66,6.31,12.48,26.7,28.21,25.44a33.21,33.21,0,0,0,8.51-2.08Zm-79.78-60.62,2.1,26.25,42.49-3.4c9.38-.76,18.4-4.54,17.58-14.82s-10.3-12.19-19.68-11.44Z"/><path class="cls-2" d="M654,952.81l-20.29-71.09,8.07-2.3,20.3,71.09Z"/><path class="cls-2" d="M703.34,937.2l-33.1-66.1,61.09-30.6,3.13,6.26L680.88,873.6l11.39,22.75,33.57-16.81,3.24,6.49-33.56,16.8,12.14,24.24,57.91-29,3.19,6.37Z"/><path class="cls-2" d="M749.8,828.44l5.91-5.43,90.42,2.12-42.45-46.19,6.19-5.69,50,54.45L854,833.12,763.75,831l42.35,46.1-6.28,5.77Z"/><path class="cls-2" d="M827.23,751.54l21-36.49c15.25-26.47,34.74-31.24,53.48-20.45,18.3,10.54,26.21,30.22,10.58,57.35l-21,36.49Zm10.26-3.78,51.82,29.85,16.83-29.22c11.88-20.62,7-37.21-8.29-46-15.54-9-31.78-4.21-43.53,16.19Z"/><path class="cls-2" d="M910.91,592.06c-9.1,3.78-17.18,11.05-21.87,31.39-3.84,16.61-2.92,30.14,7,32.43,8.18,1.89,12.53-6.77,20.05-29.71,6.69-21,12.6-41,30.57-36.82s18.1,26.25,13.75,45.09c-6,26-18.19,36.94-29.64,40.69l-1.34-7.75c9.77-4.41,19.07-12.45,24.19-34.64,4.06-17.6,3.09-32.06-8.19-34.67-10.66-2.46-15.3,9.14-22.43,31-6.67,20.39-12.2,39.23-28.44,35.48s-16.46-24.83-12.26-43c5.84-25.29,17-34,27-37.25Z"/></svg>