<svg id="Layer_1" data-name="Layer 1" xmlns="http://www.w3.org/2000/svg" viewBox="0 0 1082 1081"><defs><style>.cls-1{fill:#9dd1a2;stroke:#1b1a16;stroke-miterlimit:10;stroke-width:5.17px;}.cls-2{fill:#353532;}</style></defs><circle class="cls-1" cx="540.59" cy="540.47" r="536.26"/><path class="cls-2" d="M148.19,366.62l24.58-44.42c9.55-17.26,20.69-22.15,30.71-16.6,7.35,4.06,10.52,12.51,7.23,21.89l.22.12c6.7-8.95,15.12-11.56,23.58-6.88,11.47,6.35,13.24,18.67,3.26,36.7l-24.89,45ZM180.65,375l21.5-38.85c5.6-10.13,4.2-18.91-2.37-22.54-7.57-4.19-14.79,1-20.89,12l-20.51,37.07ZM187,378.5l23.72,13.12,20.76-37.52c6-10.8,7.35-20.66-1.55-25.58S213.3,331,208.49,339.64Z"/><path class="cls-2" d="M244.37,294.62,213.15,262.5l6-5.86,31.22,32.12c13.22,13.6,26.52,8.3,40.21-5s19.36-26.45,6.14-40l-31.22-32.12,6-5.86,31.22,32.12c18.62,19.16,6.66,37.53-7.21,51S263,313.78,244.37,294.62Z"/><path class="cls-2" d="M355.55,205.65l-57.12-20.36,10-5.38,48,17.35,11.94-49.68,9.18-5-14.44,59L376.77,227l-7.5,4Z"/><path class="cls-2" d="M457,119.34,507.45,114c19.61-2.07,30,4.25,31.21,15.64.88,8.35-4.22,15.8-13.79,18.48l0,.25c11.17.35,18.14,5.76,19.16,15.38,1.37,13-7.71,21.54-28.21,23.71l-51.12,5.4Zm11.76,31.39,44.16-4.67c11.52-1.22,17.9-7.4,17.11-14.86-.91-8.61-9.28-11.56-21.81-10.24L466,125.42Zm.76,7.21,2.85,26.95L515,180.38c12.27-1.29,21.14-5.81,20.06-15.94s-11.52-12.21-21.39-11.17Z"/><path class="cls-2" d="M567.77,147.72c4.2-21.22,23.5-35.56,56-29.14s45,27.05,40.78,48.27S640.76,202.36,608.43,196,563.55,169.07,567.77,147.72Zm88,17.4c3.56-18-7.09-34.35-33.42-39.55s-42.41,5.88-46,23.86S583.6,183.8,609.81,189,652.22,183.09,655.77,165.12Z"/><path class="cls-2" d="M687.58,175.29c10.53-18.9,33.32-26.58,62.22-10.47s34.44,39.6,23.91,58.5-33.55,26.45-62.33,10.4S677,194.29,687.58,175.29ZM765.93,219c8.92-16,3.85-34.86-19.6-47.94s-42.16-7.48-51.08,8.52-3.74,34.92,19.6,47.94S757,235,765.93,219Z"/><path class="cls-2" d="M769.84,269l53.32-51.19L829,223.9l-27.81,26.7,69.93,17.18,9.61,10-64-16.33,12.71,69.64L819,320.26,808,259.2l-12.53-3.13-19.83,19Z"/><path class="cls-2" d="M915.84,375.55c4.34-8.84,5.6-19.64-4.31-38-8.1-15-17.73-24.56-26.69-19.73-7.39,4-4.94,13.37,4.58,35.56,8.88,20.22,17.61,39.08,1.37,47.84s-30.93-7.75-40.12-24.78c-12.68-23.52-10.74-39.75-4.62-50.13l6.13,4.94c-4.43,9.76-6.1,21.94,4.72,42,8.57,15.91,18.85,26.12,29.05,20.63,9.63-5.2,5.45-17-3.63-38.1-8.47-19.72-16.77-37.51-2.1-45.42s28.77,7.76,37.65,24.22c12.32,22.85,9.68,36.71,4.32,45.82Z"/><path class="cls-2" d="M122.34,587.94l73.37-9.06,1,8.34-73.37,9.06Z"/><path class="cls-2" d="M199.54,616.38l2.65,7.56-37.6,82.25,59.19-20.78,2.78,7.92-69.76,24.5-2.65-7.57,37.53-82.09-59.07,20.74-2.83-8Z"/><path class="cls-2" d="M239.77,717.67l25.52,33.5c18.51,24.3,15.37,44.12-1.83,57.23-16.81,12.8-38,12.48-57-12.42L181,762.47Zm-.48,10.92-47.58,36.24,20.44,26.83c14.42,18.92,31.59,20.88,45.66,10.16,14.27-10.87,16.18-27.68,1.91-46.41Z"/><path class="cls-2" d="M264.87,859.53l44-59.43,54.93,40.64-4.16,5.62-48.18-35.64-15.14,20.46,30.18,22.32-4.31,5.83L292,837l-16.12,21.78,52.07,38.53L323.69,903Z"/><path class="cls-2" d="M356.8,920.27l26.48-69,46.93,18c14.85,5.69,24.1,16,18.58,30.43s-19.43,15.85-34.16,10.2l-39.09-15-10.89,28.4Zm31.82-59.48L378,888.35l39.81,15.27c8.79,3.37,18.69,3.49,22.79-7.2s-3.43-17-12.22-20.37Z"/><path class="cls-2" d="M468.31,955.72l7-73.6,68,6.49-.66,7L483,889.89l-2.42,25.33L518,918.78l-.69,7.22-37.37-3.56-2.57,27,64.48,6.15-.68,7.09Z"/><path class="cls-2" d="M565.39,888.24l7.87-1.5L649,936.21l-11.71-61.63,8.25-1.57,13.8,72.64-7.88,1.49-75.56-49.37,11.68,61.51-8.38,1.59Z"/><path class="cls-2" d="M671.52,863.6l36.9-20.29c26.76-14.72,45.91-8.69,56.33,10.27,10.17,18.5,6.72,39.43-20.71,54.51l-36.9,20.29Zm10.73,2.09,28.81,52.4,29.55-16.25c20.85-11.46,25.32-28.15,16.8-43.65-8.64-15.72-25-20.09-45.61-8.75Z"/><path class="cls-2" d="M815.51,859.68,763.2,807.44l48.28-48.35,4.95,4.95-42.34,42.41,18,18,26.53-26.56,5.13,5.12-26.52,26.56L816.4,848.7l45.77-45.83,5,5Z"/><path class="cls-2" d="M825.16,741.85l3.84-7,86.3-27.07-55-30.09,4-7.37,64.86,35.46-3.84,7-86.13,27,54.94,30L890,777.32Z"/><path class="cls-2" d="M949.79,636.57l-65.31-14.65-7.88,35.13-6.83-1.53,17.57-78.34,6.83,1.53-7.82,34.89,65.31,14.65Z"/></svg>