<svg id="Layer_1" data-name="Layer 1" xmlns="http://www.w3.org/2000/svg" viewBox="0 0 1082 1081"><defs><style>.cls-1{fill:#f79b83;stroke:#1b1a16;stroke-miterlimit:10;stroke-width:5.17px;}.cls-2{fill:#353532;}</style></defs><circle class="cls-1" cx="540.59" cy="540.47" r="536.26"/><path class="cls-2" d="M194.29,288.32l5.36-6.48,51.47,42.59,36.09-43.63,5.49,4.54-41.44,50.1Z"/><path class="cls-2" d="M304.48,275.22l-44-59.41,54.91-40.66,4.17,5.62L271.4,216.44l15.14,20.45,30.16-22.34,4.32,5.83-30.17,22.34L307,264.5,359,226l4.24,5.72Z"/><path class="cls-2" d="M401.71,215.22l-25.23-62-33.35,13.57-2.64-6.48,74.37-30.26,2.64,6.49L384.38,150l25.22,62Z"/><path class="cls-2" d="M458.3,114.38c2.92,13.29-2.48,27.24-13.61,30l-1.07-4.85c5.5-2.25,10.88-11,8.37-22.42L443.16,119l-2.59-11.8L456,103.81Z"/><path class="cls-2" d="M566.85,131c-5.85-7.93-14.85-14-35.72-13.69-17,.27-30,4.42-29.8,14.59.13,8.4,9.58,10.54,33.66,12.33,22,1.43,42.8,2.38,43.09,20.83S557,188.91,537.61,189.22c-26.72.42-40.23-8.79-46.62-19l7.2-3.17c6.62,8.42,16.66,15.52,39.44,15.16,18.06-.29,31.87-4.71,31.68-16.28-.17-10.94-12.54-12.66-35.47-14.33-21.41-1.57-41-2.41-41.28-19.08s20.14-22,38.84-22.24c26-.41,37,8.32,42.65,17.27Z"/><path class="cls-2" d="M721.7,233.53,715,230.67l5.56-13-.24-.1c-9.85,5.88-23.4,8.1-41.88.18-26.43-11.32-37.6-33.41-28.17-55.4,9.22-21.52,32-28.9,61.63-16.22,24.56,10.52,30.91,24.46,32.82,30.67L737,178.07c-4.11-7.85-9.06-17.31-28.82-25.78-22.69-9.72-42-4.71-49.92,13.77s2.12,36.08,23.64,45.3c20,8.57,38.38,5.09,45.84-10.4l.06-.11-29.71-12.73,2.81-6.55,36.37,15.58Z"/><path class="cls-2" d="M739.18,246.38l46.71-57.3,53,43.18-4.42,5.42L788,199.82,771.9,219.54,801,243.26l-4.58,5.62-29.09-23.72-17.13,21,50.2,40.92-4.5,5.52Z"/><path class="cls-2" d="M821.2,325.72l53.71-39.93-21.49-28.9,5.62-4.18L907,317.14l-5.62,4.18L880,292.63l-53.71,39.93Z"/><path class="cls-2" d="M244.1,820.72c-8-.9-25.36-3.81-41.09-25-17.93-24.09-16.18-48.39,2.81-62.51s42.51-9,61.12,16.06c15.73,21.13,13.32,38.14,12.61,43.59l-7.6-2.12c0-9.64.9-21.6-10.8-37.32-15-20.11-34-25.17-50.09-13.17S194.32,772,209.21,792c11.7,15.72,25.18,18.69,35.12,21Z"/><path class="cls-2" d="M277.36,823.8c12.54-17.63,36-22.77,63-3.59s29.9,43.14,17.36,60.77-36.25,22.62-63.1,3.51S264.74,841.53,277.36,823.8Zm73.09,52c10.62-14.93,7.64-34.23-14.23-49.79s-41.09-12.06-51.71,2.87-7.54,34.3,14.23,49.79S339.82,890.74,350.45,875.81Z"/><path class="cls-2" d="M380.89,892.38c6.34-20.68,27-33,58.65-23.28s42,31.51,35.64,52.19-27.26,32.9-58.77,23.24S374.51,913.18,380.89,892.38Zm85.77,26.3c5.37-17.52-3.54-34.89-29.21-42.76s-42.79,1.51-48.16,19,3.66,34.93,29.21,42.77S461.29,936.2,466.66,918.68Z"/><path class="cls-2" d="M506.87,961,506.42,887l8.4-.06.23,38.56,60.59-38.92,13.87-.08-55.9,35.2,59.27,38.71-15,.09-51.87-34-10.9,6.94.16,27.49Z"/><path class="cls-2" d="M621.27,952.89l-15-72.39,8.22-1.7,15,72.38Z"/><path class="cls-2" d="M643.24,873.82l7.32-3.28,85.12,30.56L710,843.87l7.67-3.44,30.27,67.44-7.32,3.29-85-30.5,25.63,57.12-7.78,3.49Z"/><path class="cls-2" d="M854.72,823.33l-5.41,4.83-9.41-10.54-.19.17c1.16,11.42-2.57,24.64-17.57,38C800.69,875,776,875.73,760,857.88c-15.59-17.47-12.62-41.27,11.4-62.71,19.94-17.79,35.25-17.65,41.69-16.74L811,786c-8.86.4-19.52.87-35.56,15.19-18.42,16.44-22.06,36.06-8.67,51.06s33.58,13.35,51-2.24c16.23-14.49,20.86-32.61,10-45.93l-.09-.1-24.11,21.52-4.75-5.31,29.53-26.35Z"/><path class="cls-2" d="M803.11,739.2l7.18-9.88,10.3,7.48,39.79,33.34-3,4.12-44-27.58Zm62,46.78,8.75-12,10.81,7.85-8.76,12.05Z"/></svg>