<svg id="Layer_1" data-name="Layer 1" xmlns="http://www.w3.org/2000/svg" viewBox="0 0 1082 1081"><defs><style>.cls-1{fill:#f79b83;stroke:#1b1a16;stroke-miterlimit:10;stroke-width:5.17px;}.cls-2{fill:#353532;}</style></defs><circle class="cls-1" cx="540.59" cy="540.47" r="536.26"/><path class="cls-2" d="M261.72,320.76,207.9,270.08l46.85-49.75,5.09,4.8-41.09,43.63,18.53,17.45L263,258.88l5.28,5-25.73,27.33,19.73,18.58,44.4-47.15,5.19,4.89Z"/><path class="cls-2" d="M322.94,259.48l-7.66,4.8-4.54-84.4,5.07-3.17,73.87,40.95-8.41,5.27-20.68-11.67-39.14,24.53Zm-2-31.76,32.56-20.4L318.4,187.55Z"/><path class="cls-2" d="M417.74,208.82l-22-63.21-34,11.84-2.3-6.61,75.83-26.39,2.3,6.6-33.77,11.76,22,63.21Z"/><path class="cls-2" d="M516.33,112.7l8.4,0-.46,66.8,56.62.4,0,7.12-65-.45Z"/><path class="cls-2" d="M595.63,150.59c5.72-20.86,26-33.77,57.91-25s42.91,30.23,37.2,51.09-26.26,33.71-58,25S589.88,171.58,595.63,150.59Zm86.52,23.71c4.84-17.67-4.6-34.77-30.49-41.86s-42.72,2.8-47.56,20.47,4.71,34.81,30.48,41.87S677.3,192,682.15,174.3Z"/><path class="cls-2" d="M716.47,233.88l34-57.64-31-18.29,3.56-6,69.14,40.8-3.55,6-30.79-18.17-34,57.64Z"/><path class="cls-2" d="M855,277.21c1.7-9.71-.1-20.43-14.73-35.31-12-12.15-23.87-18.64-31.13-11.5-6,5.89-1,14.21,14.3,32.87,14.17,16.94,27.8,32.62,14.65,45.56S806.2,310,792.63,296.22c-18.73-19.06-21.39-35.18-18.41-46.86l7.26,3c-1.53,10.61.26,22.77,16.23,39,12.67,12.88,25.39,19.83,33.65,11.71,7.8-7.68.51-17.82-14.1-35.57-13.63-16.58-26.56-31.36-14.67-43.05s29.79-.56,42.9,12.78c18.2,18.5,19.53,32.55,16.92,42.79Z"/><path class="cls-2" d="M218.29,715.87c5.08-8.44,7.26-19.09-1-38.24-6.78-15.65-15.56-26-24.9-21.94-7.71,3.33-6.07,12.88,1.51,35.81,7.11,20.91,14.19,40.45-2.75,47.78S161,728.9,153.29,711.15c-10.62-24.52-7.29-40.52-.31-50.34l5.69,5.45c-5.25,9.34-8,21.33,1.09,42.23,7.18,16.58,16.55,27.64,27.18,23,10-4.35,6.88-16.44-.35-38.26-6.74-20.38-13.48-38.81,1.81-45.44s28,10.2,35.43,27.37c10.32,23.82,6.49,37.4.38,46Z"/><path class="cls-2" d="M194.66,783.37l56-48.25,5.48,6.37-24.49,21.09,42.19,49,24.48-21.09,5.57,6.46-56,48.24-5.56-6.46,26.13-22.5-42.18-49-26.13,22.5Z"/><path class="cls-2" d="M282.13,873.93,274.55,869l74.6-39.72,5,3.25-6,84.25-8.33-5.4,1.86-23.67L303,862.58Zm27.93-15.25L342.3,879.6l3.13-40.14Z"/><path class="cls-2" d="M460.08,955.41a27.51,27.51,0,0,1-10.25-1.29c-27.36-8.44-4.22-38.19-28.41-45.64l-22.87-7.05-9.89,32.11-8-2.48,21.77-70.65,48,14.8c15.2,4.69,25.27,13.91,21.11,27.41-4.23,13.74-17.83,15.54-32.91,10.9l-1.83-.56-.07.24c10.35,10.91,1.72,29.42,16.8,34.07a33.48,33.48,0,0,0,8.68,1.21Zm-51.71-85.84-7.76,25.18,40.74,12.55c9,2.77,18.78,2.59,21.81-7.26s-5.05-15.14-14.05-17.92Z"/><path class="cls-2" d="M499.79,960l1.46-73.91,68.32,1.34-.14,7-59.92-1.18L509,918.7l37.53.74-.15,7.26L508.86,926l-.53,27.09,64.75,1.28-.14,7.13Z"/><path class="cls-2" d="M636.16,874.33l7.87-2.92L667.28,934l53.08-19.71,2.48,6.68-61,22.63Z"/><path class="cls-2" d="M724.41,880.29c-12.65-17.55-10-41.45,16.88-60.8s50.47-14.41,63.12,3.14,9.75,41.59-17,60.87S737.13,897.94,724.41,880.29Zm72.77-52.46c-10.71-14.86-29.94-18.25-51.72-2.55s-24.64,35-13.93,49.87,30.05,18.19,51.72,2.56S807.9,842.7,797.18,827.83Z"/><path class="cls-2" d="M866.75,805.3l-52.38-41.68L792,791.8l-5.48-4.36,50-62.83,5.47,4.36-22.26,28,52.38,41.67Z"/><path class="cls-2" d="M889.11,653.57c-9.63,2.1-18.87,7.82-27.11,27-6.73,15.67-8.23,29.15,1.12,33.17,7.71,3.32,13.54-4.43,25-25.67,10.33-19.52,19.69-38.07,36.64-30.79s13.13,29.05,5.5,46.82c-10.55,24.55-24.48,33.11-36.41,34.77l.06-7.87c10.39-2.6,21-8.85,30-29.78,7.13-16.6,8.75-31-1.89-35.57-10-4.32-16.68,6.26-27.59,26.5-10.2,18.89-19,36.44-34.3,29.86s-11.79-27.37-4.4-44.55c10.25-23.85,22.75-30.39,33.22-31.85Z"/></svg>