<svg id="Layer_1" data-name="Layer 1" xmlns="http://www.w3.org/2000/svg" viewBox="0 0 1082 1081"><defs><style>.cls-1{fill:#80bfc2;stroke:#1b1a16;stroke-miterlimit:10;stroke-width:5.17px;}.cls-2{font-size:137.76px;}.cls-2,.cls-3{fill:#353532;font-family:WeddingGothicATF-Book, Wedding Gothic ATF;}.cls-3{font-size:137.76px;}</style></defs><circle class="cls-1" cx="540.59" cy="540.47" r="536.26"/><text class="cls-2" transform="translate(195.58 568.66) rotate(-86.76)">f</text><text class="cls-2" transform="matrix(0.35, -0.94, 0.94, 0.35, 196.94, 480.51)">o</text><text class="cls-2" transform="matrix(0.65, -0.76, 0.76, 0.65, 237.94, 367.01)">o</text><text class="cls-2" transform="translate(315.34 274.49) rotate(-30.14)">d</text><text class="cls-2" transform="translate(417.67 219.13) rotate(-16.62)"> </text><text class="cls-2" transform="matrix(0.99, -0.1, 0.1, 0.99, 458.91, 203.99)">j</text><text class="cls-2" transform="translate(546.21 192.17) rotate(10.89)">u</text><text class="cls-2" transform="translate(657.14 213.48) rotate(28.61)">s</text><text class="cls-2" transform="matrix(0.7, 0.71, -0.71, 0.7, 750.42, 264.99)">t</text><text class="cls-2" transform="matrix(0.55, 0.83, -0.83, 0.55, 813.74, 332.22)">i</text><text class="cls-2" transform="matrix(0.36, 0.93, -0.93, 0.36, 839.08, 362.06)">c</text><text class="cls-2" transform="translate(878.91 466.45) rotate(86.23)">e</text><text class="cls-3" transform="translate(291.67 887.8) rotate(27.37)">n</text><text class="cls-3" transform="matrix(0.99, 0.13, -0.13, 0.99, 421.38, 951.07)">o</text><text class="cls-3" transform="translate(567.92 968.22) rotate(-13.3)">w</text><text class="cls-3" transform="translate(720.86 923.33) rotate(-28.17)">!</text></svg>