<svg id="Layer_1" data-name="Layer 1" xmlns="http://www.w3.org/2000/svg" viewBox="0 0 1082 1081"><defs><style>.cls-1{fill:#9dd1a2;stroke:#1b1a16;stroke-miterlimit:10;stroke-width:5.17px;}.cls-2{fill:#353532;}</style></defs><circle class="cls-1" cx="540.59" cy="540.47" r="536.26"/><path class="cls-2" d="M206,423.52l-61.83-26.81,24.77-57.14,5.86,2.53-21.73,50.13,22.88,9.92,13.61-31.4,6,2.59-13.61,31.39L209,416.49Z"/><path class="cls-2" d="M216.43,338.42l-32.38-24.88,4.67-6.07,32.38,24.88c13.7,10.53,25,4,35.61-9.79s14-26.41.29-36.94l-32.38-24.88,4.67-6.07,32.38,24.88c19.31,14.84,10.93,33,.19,47S235.75,353.26,216.43,338.42Z"/><path class="cls-2" d="M353.72,220.77c-.76,7.27-3.28,23.14-22.42,37.64-21.83,16.53-44,15.12-57-2.08s-8.49-38.68,14.17-55.83c19.14-14.5,34.67-12.44,39.64-11.83l-1.87,6.94c-8.8.11-19.7-.65-33.94,10.13-18.22,13.8-22.69,31.15-11.62,45.76s29,15,47.1,1.29C342,242,344.62,229.7,346.62,220.62Z"/><path class="cls-2" d="M376.44,225.53,351,163.14l7.09-2.89,13.29,32.54,38-53.51,11.7-4.78-35.34,48.77L449,195.88l-12.68,5.18-55.44-11.19-6.86,9.57,9.47,23.2Z"/><path class="cls-2" d="M577,186.37a25.09,25.09,0,0,1-9.26,1.74c-26.1.33-14.33-32-37.41-31.66l-21.8.27.38,30.63-7.65.09-.86-67.39,45.82-.58c14.5-.18,25.82,5,26,17.89.17,13.1-11.13,18.47-25.52,18.65l-1.74,0v.23c12,6.58,9.71,25.05,24.09,24.87a30.5,30.5,0,0,0,7.88-1.37Zm-68.86-60,.3,24,38.86-.49c8.58-.11,17-3,16.9-12.39s-8.62-11.73-17.2-11.62Z"/><path class="cls-2" d="M591.35,189.25l-8-1.91,51.92-56.93,5.31,1.26,20.63,74.18-8.8-2.09-5.64-20.9-41-9.74Zm19.33-21.64,34.08,8.1-9.58-35.42Z"/><path class="cls-2" d="M747,233.2c-6.88,2.47-22.28,7.1-43.65-3.85-24.36-12.48-32.72-33-22.89-52.26s31.16-24.44,56.45-11.48c21.38,10.94,26.26,25.83,27.88,30.56l-7.07,1.34c-3.92-7.88-8-18-23.87-26.18-20.34-10.41-37.91-6.9-46.26,9.41s-.94,32.63,19.29,43c15.9,8.15,28.12,5.15,37.17,3Z"/><path class="cls-2" d="M752.76,257.87l41.15-53.38,6.06,4.67-41.15,53.38Z"/><path class="cls-2" d="M859.6,291.39c1.92-8.78.69-18.61-12.08-32.71-10.43-11.53-21-17.89-27.91-11.66-5.68,5.13-1.47,12.9,11.78,30.48,12.26,16,24.09,30.76,11.62,42.05s-29.07-.14-40.9-13.21c-16.34-18.06-18.15-32.85-15-43.37l6.5,3c-1.79,9.6-.62,20.75,13.31,36.14,11.05,12.22,22.37,19,30.2,11.94,7.4-6.69,1.14-16.2-11.5-32.93-11.78-15.61-23-29.56-11.73-39.76s27.16.62,38.6,13.26C868.37,272.2,869,285,866.28,294.27Z"/><path class="cls-2" d="M899.71,317.35l4.22,8.66-38.1,56.1,67.66,4.6,4,8.24-60.59,29.51-3.35-6.88,51.21-24.95-65.54-4.46-2.43-5,37-54.4-51.31,25-3.35-6.88Z"/><path class="cls-2" d="M185.24,551.14l1,7.24-48.68,66.56,56.67-7.7,1,7.58-66.78,9.08-1-7.24,48.57-66.43-56.56,7.69-1-7.7Z"/><path class="cls-2" d="M168.66,656.93c18-8.07,38.83-1.27,51.17,26.25s3.59,47.71-14.4,55.78S166.5,740,154.21,712.6,150.56,665,168.66,656.93Zm33.45,74.62c15.24-6.83,21.81-23.38,11.79-45.71s-26.73-28.44-42-21.61-21.76,23.48-11.8,45.71S186.87,738.38,202.11,731.55Z"/><path class="cls-2" d="M238.27,731.51l5.59,6.35-26.58,54.61,56.39-20.73,3.38,3.83-27.73,53.14,57.61-19.17,5.21,5.92-69.83,22.66L239,834.38l27.66-53.55-56.48,20.8-3.37-3.83Z"/><path class="cls-2" d="M410.13,940.57c-3.84,1.42-8.34.64-11.81-1-6.75-3.1-12-11.13-17.15-22.69-14,4-25.88,3.81-37.69-1.62-12.44-5.71-21.17-15.6-15.12-28.77,6.4-13.92,21-12.43,35.48-11.92-3.44-10-3.54-16.18-1.12-21.45,4.5-9.8,15.58-10.84,24.22-6.87,8.85,4.07,15.23,13.25,10.63,23.27-4.17,9.06-13.25,10.76-23.41,10.94,2.78,7.28,8.47,21,11.4,28A89.82,89.82,0,0,0,413.12,891l7.69,3.54c-9.07,8.08-19.53,15.28-32.6,20.12,4.16,9.83,7.63,15.89,13.85,18.75a17,17,0,0,0,10.88,1.05Zm-31.5-29.8c-4.05-9.52-7.26-17-12.52-30.26-12.73-.36-25.52-1.13-30.12,8.88-3.83,8.33,1.46,16,10.84,20.3C355.37,913.62,366.29,914.29,378.63,910.77Zm-6.53-36.06c8.87-.14,15.41-1.6,18.32-7.93,2.27-4.95,1.6-11.26-6.09-14.8-8.12-3.73-13,.8-14.85,4.8C367.35,861.42,369.46,867.11,372.1,874.71Z"/><path class="cls-2" d="M490.77,958.54l3.76-67.29,62.2,3.47-.36,6.37-54.55-3L500.43,923l34.17,1.91-.37,6.48-34.16-1.91L498.42,959Z"/><path class="cls-2" d="M570.43,928.41c-3.77-19.35,7.58-38.11,37.18-43.88s47.28,7.33,51.06,26.68-7.81,38.16-37.3,43.91S574.23,947.88,570.43,928.41Zm80.27-15.65c-3.2-16.39-17.82-26.54-41.85-21.86s-33.76,19.59-30.56,36,17.93,26.52,41.84,21.86S653.89,929.16,650.7,912.76Z"/><path class="cls-2" d="M767.59,896.22a25.19,25.19,0,0,1-7.53,5.66c-23.26,11.84-27-22.32-47.56-11.84l-19.43,9.9L707,927.23l-6.82,3.47-30.59-60.05,40.83-20.8c12.92-6.58,25.37-6.93,31.21,4.54,5.95,11.68-1.81,21.49-14.63,28l-1.55.79.11.21c13.7.57,19.79,18.16,32.61,11.63a30.26,30.26,0,0,0,6.45-4.71Zm-88.32-23.36,10.9,21.39,34.63-17.63c7.65-3.9,13.93-10.23,9.67-18.6s-12.92-6.7-20.57-2.8Z"/><path class="cls-2" d="M795.54,875.59l-44.38-50.72,46.88-41,4.2,4.8-41.11,36,15.27,17.46,25.76-22.54,4.35,5-25.75,22.53L797,865.66l44.43-38.88,4.28,4.88Z"/><path class="cls-2" d="M805.07,777.27l5.31-7.47,65.3,7.88-28.77-59.2,4.7-6.61,33.19,69.6-3.16,4.44Z"/><path class="cls-2" d="M919.68,724.2,857.16,699l23.27-57.78,5.92,2.38L865.94,694.3,887.46,703l12.78-31.75,6.14,2.48-12.79,31.74,22.93,9.23,22.05-54.77,6,2.42Z"/><path class="cls-2" d="M962.51,555.35a25,25,0,0,1,.38,9.41c-3.47,25.87-33.7,9.52-36.77,32.4l-2.91,21.62,30.36,4.07-1,7.59-66.8-9,6.09-45.41c1.93-14.37,8.72-24.82,21.48-23.1,13,1.74,16.66,13.7,14.74,28l-.23,1.72.23,0c8.26-10.95,26.2-6,28.11-20.22a30.09,30.09,0,0,0-.21-8Zm-69.42,59.38,23.8,3.2,5.17-38.52c1.14-8.51-.49-17.27-9.8-18.52s-12.86,6.82-14,15.33Z"/></svg>