<svg id="Layer_1" data-name="Layer 1" xmlns="http://www.w3.org/2000/svg" viewBox="0 0 1082 1081"><defs><style>.cls-1{fill:#9dd1a2;stroke:#1b1a16;stroke-miterlimit:10;stroke-width:5.17px;}.cls-2{font-size:116px;fill:#353532;font-family:WeddingGothicATF-Book, Wedding Gothic ATF;}</style></defs><circle class="cls-1" cx="540.59" cy="540.47" r="536.26"/><text class="cls-2" transform="translate(200.26 436.72) rotate(-66.56)">f</text><text class="cls-2" transform="translate(229.37 365.18) rotate(-52.46)">u</text><text class="cls-2" transform="matrix(0.8, -0.6, 0.6, 0.8, 287.73, 288.49)">c</text><text class="cls-2" transform="translate(363.13 230.97) rotate(-22.22)">k</text><text class="cls-2" transform="translate(448.1 198.48) rotate(-11.55)"> </text><text class="cls-2" transform="translate(486.84 187.63) rotate(-0.73)">r</text><text class="cls-2" transform="matrix(0.97, 0.23, -0.23, 0.97, 580.06, 186.56)">a</text><text class="cls-2" transform="translate(657.34 203.17) rotate(27.12)">c</text><text class="cls-2" transform="matrix(0.79, 0.61, -0.61, 0.79, 741.37, 249.08)">i</text><text class="cls-2" transform="matrix(0.67, 0.74, -0.74, 0.67, 769.58, 267.1)">s</text><text class="cls-2" transform="translate(832.82 333.94) rotate(64.03)">m</text><text class="cls-2" transform="matrix(0.13, 0.99, -0.99, 0.13, 116.52, 545.96)">n</text><text class="cls-2" transform="translate(134.3 662.8) rotate(65.86)">o</text><text class="cls-2" transform="matrix(0.66, 0.75, -0.75, 0.66, 184.53, 772.46)">w</text><text class="cls-2" transform="translate(272.44 865.11) rotate(36.59)"> </text><text class="cls-2" transform="translate(314.77 899.43) rotate(24.68)">&amp;</text><text class="cls-2" transform="translate(425.82 945.43) rotate(12.74)"> </text><text class="cls-2" transform="translate(476.41 957.74) rotate(3.2)">f</text><text class="cls-2" transform="translate(568.35 963.21) rotate(-11.03)">o</text><text class="cls-2" transform="matrix(0.89, -0.45, 0.45, 0.89, 687.33, 937.23)">r</text><text class="cls-2" transform="translate(784.72 885.06) rotate(-41.19)">e</text><text class="cls-2" transform="matrix(0.58, -0.81, 0.81, 0.58, 858.1, 818.99)">v</text><text class="cls-2" transform="translate(914.31 737.54) rotate(-68.06)">e</text><text class="cls-2" transform="translate(950.64 644.7) rotate(-82.36)">r</text></svg>