<svg id="Layer_1" data-name="Layer 1" xmlns="http://www.w3.org/2000/svg" viewBox="0 0 1082 1081"><defs><style>.cls-1{fill:#f79b83;stroke:#1b1a16;stroke-miterlimit:10;stroke-width:5.17px;}.cls-2{fill:#353532;}</style></defs><circle class="cls-1" cx="540.59" cy="540.47" r="536.26"/><path class="cls-2" d="M261.13,352.3l-66.67-55.22,51-61.62,6.31,5.23-44.77,54,24.67,20.44,28-33.85,6.43,5.32-28,33.85,29.26,24.24Z"/><path class="cls-2" d="M326.06,280.11,278.78,207.6l67-43.71,4.47,6.87-58.78,38.33,16.28,25,36.82-24,4.63,7.12-36.81,24,17.33,26.58,63.53-41.42,4.56,7Z"/><path class="cls-2" d="M415.29,227.31l-23.2-83.4,77.09-21.44,2.19,7.9-67.61,18.8,8,28.71,42.35-11.78,2.28,8.19L414,186.06l8.5,30.58,73.07-20.32,2.24,8Z"/><path class="cls-2" d="M518.66,118l9.83.24-1.87,78.2L592.91,198l-.2,8.34-76.12-1.82Z"/><path class="cls-2" d="M611,212.74l19.55-84.33,9.58,2.22L620.54,215Z"/><path class="cls-2" d="M692.54,144.26l8.33,4.33L734.68,249l33.88-65.18,8.73,4.54-39.93,76.81L729,260.79,695.28,160.63l-33.8,65-8.86-4.6Z"/><path class="cls-2" d="M827.36,359.38l-5.6-6.39,12.43-10.91-.2-.22c-13.39,1.24-28.82-3.25-44.36-20.94-22.21-25.31-22.86-54.28-1.81-72.76,20.6-18.09,48.45-14.37,73.32,14,20.64,23.52,20.32,41.45,19.19,49l-8.8-2.58c-.38-10.37-.84-22.86-17.45-41.79-19.07-21.72-42-26.17-59.7-10.64s-16,39.19,2.13,59.8c16.81,19.14,38,24.74,53.69,12.15l.11-.1-25-28.44,6.27-5.51,30.57,34.82Z"/><path class="cls-2" d="M196.06,787.89l-4-7.47,14.54-7.88-.14-.26c-13.33-1.76-27.39-9.57-38.6-30.27-16-29.61-10.24-58,14.39-71.35,24.11-13,50.43-3.25,68.39,29.89,14.9,27.52,10.61,44.93,7.84,52l-8-4.47c1.93-10.2,4.26-22.48-7.74-44.62-13.77-25.42-35.14-34.85-55.84-23.63s-24.27,34.66-11.21,58.77c12.14,22.4,31.54,32.57,49.65,23.77l.14-.07L207.4,729l7.33-4,22.08,40.74Z"/><path class="cls-2" d="M290.86,764.58l7.24,6.65-52.89,57.63,48.86,44.83-5.65,6.15-56.09-51.48Z"/><path class="cls-2" d="M333,860.46c10.4-23.09,36.22-34.34,71.54-18.44s44.15,42.76,33.75,65.86-36.49,34.22-71.68,18.38S322.55,883.69,333,860.46Zm95.78,43.14c8.81-19.56,1-41.06-27.66-54s-49.94-4.51-58.75,15-.86,41.12,27.67,54S420,923.16,428.79,903.6Z"/><path class="cls-2" d="M469.78,915.26c.84-25.31,20.44-45.53,59.16-44.25,38.57,1.28,57.08,22.77,56.24,48.08-.84,25.47-20.74,45.53-59.31,44.25S468.93,940.72,469.78,915.26Zm105,3.49c.71-21.45-14.68-38.36-46.1-39.4-31.27-1-47.9,14.81-48.61,36.25S494.88,954,526.15,955C557.57,956,574.05,940.19,574.76,918.75Z"/><path class="cls-2" d="M608.84,871.61l11.55-4.43,67.58,55,13.36-86.07,11-4.22,31.06,80.8-9.18,3.53L708,847.88l-13,83.36-6.67,2.57-65.53-53.35,26.31,68.43-9.18,3.53Z"/><path class="cls-2" d="M793,833.05l-70.56-7.92,9.92-8.8,59.32,6.93.31-59.83,9.14-8.1-.67,71.1,22.45,25.3-7.47,6.62Z"/><path class="cls-2" d="M819.57,754.37c-16.27-9.35-31-23.49-10.89-58.5,20.79-36.17,39.19-40.38,54.05-31.84,13.3,7.65,20.25,24.87.6,56.37l17,9.8-5,8.66-23.9-13.74c11.89-19.8,24.16-41.45,6.46-51.62-12.27-7-26.33-.53-41.55,26-17.22,30-3.76,39.43,8.13,46.26Zm67.21-4.51,8.69-15.11L909,742.54l-8.69,15.12Z"/></svg>