<svg id="Layer_1" data-name="Layer 1" xmlns="http://www.w3.org/2000/svg" viewBox="0 0 1082 1081"><defs><style>.cls-1{fill:#f79b83;stroke:#1b1a16;stroke-miterlimit:10;stroke-width:5.17px;}.cls-2{fill:#353532;}</style></defs><circle class="cls-1" cx="540.59" cy="540.47" r="536.26"/><path class="cls-2" d="M220.13,382.26l-2.52,7.81-15.21-4.89-.09.27C210,395.94,213.92,411,207,432.63c-10,31-33.67,45.9-59.44,37.61-25.23-8.12-36-33.05-24.81-67.73,9.26-28.79,24.29-37.42,31.09-40.23l2.23,8.59c-8.41,5.46-18.54,12-26,35.2-8.55,26.6-.86,47.83,20.8,54.8s40.42-6.21,48.54-31.44c7.54-23.44,1.67-43.78-16.57-50.56l-.14,0-11.19,34.82-7.68-2.47,13.71-42.64Z"/><path class="cls-2" d="M194,342c-19.33-15-24-41.83-1.06-71.39s50.2-31.75,69.53-16.73,23.85,42,1,71.5S213.47,357.07,194,342Zm62.29-80.16c-16.38-12.72-38.34-10.28-57,13.72s-15.59,45.87.79,58.6,38.42,10.16,57-13.72S272.68,274.52,256.31,261.8Z"/><path class="cls-2" d="M283.7,234.54c-13-20.75-8.17-47.55,23.57-67.4s58.06-12.55,71,8.21,7.93,47.7-23.69,67.48S296.76,255.42,283.7,234.54Zm86.07-53.85c-11-17.58-32.46-22.83-58.22-6.72s-30.43,37.72-19.43,55.3S324.71,252,350.35,236,380.77,198.27,369.77,180.69Z"/><path class="cls-2" d="M403.05,122.8l46.59-10.07c33.79-7.3,52.59,5.43,57.76,29.36,5.05,23.37-5.46,44.94-40.09,52.42l-46.59,10.07Zm11,5.73,14.29,66.16,37.3-8.06c26.32-5.69,36.57-22.34,32.34-41.91-4.28-19.84-20.59-29.87-46.64-24.25Z"/><path class="cls-2" d="M589.08,103.07l11.1,2.52,22.13,78.59L676.42,123l9.83,2.23-63.92,71.26-6.6-1.5Z"/><path class="cls-2" d="M682.37,216.55,717,140.41l8.65,3.94L691,220.49Z"/><path class="cls-2" d="M771.35,166.68,817,201.63c17.71,13.58,21.32,26.87,13.43,37.16-5.78,7.54-15.77,9.68-25.71,4.42l-.17.23c8.89,9,10.4,18.86,3.74,27.54-9,11.77-23.11,11.68-41.62-2.51l-46.17-35.4Zm-19.79,41.43L732.9,232.46,771.41,262c11.09,8.5,21.88,11.7,28.89,2.56s.06-19-8.86-25.85Zm5-6.51,39.89,30.58c10.4,8,20.45,7.88,25.62,1.13,6-7.77,1.39-16.72-9.93-25.39l-38-29.18Z"/><path class="cls-2" d="M808.61,307.46,877,259.27l44.54,63.22-6.48,4.56L876,271.6l-23.55,16.59,24.47,34.73-6.71,4.73-24.47-34.73-25.07,17.67,42.21,59.92-6.59,4.64Z"/><path class="cls-2" d="M947.6,448c6.65-8.95,10.28-20.7,3-43.19-5.9-18.36-14.64-31-25.61-27.46-9,2.91-8.25,13.85-2.26,40.51,5.71,24.33,11.52,47.12-8.36,53.5s-32.81-15-39.5-35.85c-9.26-28.79-3.74-46.44,5.21-56.73l5.8,6.76c-6.94,9.94-11.32,23.15-3.43,47.68,6.26,19.47,15.58,33,28.06,28.95,11.79-3.79,9.57-17.75,3.83-43.13-5.35-23.69-10.9-45.2,7.06-51s30.4,14.58,36.88,34.73c9,28,3.18,42.84-4.66,51.87Z"/><path class="cls-2" d="M306.53,867.4c11.34-21.69,36.89-31.09,70.07-13.75s40.18,43.75,28.84,65.45-37.14,31-70.2,13.68S295.12,889.23,306.53,867.4Zm90,47c9.61-18.38,3.29-39.56-23.64-53.63s-47.92-7.17-57.53,11.2-3.15,39.62,23.65,53.63S386.9,932.8,396.5,914.43Z"/><path class="cls-2" d="M446.62,887.22l9,1.21,63.61,80.19,9.46-70.36,9.42,1.27L527,982.45l-9-1.21-63.49-80L445,971.43l-9.57-1.29Z"/><path class="cls-2" d="M569.48,896.68l9.38-1.57,12.5,74.56,63.2-10.6,1.33,7.95-72.56,12.17Z"/><path class="cls-2" d="M692.84,918.06l-62-29.38,11.83-4.93,52.05,25,19.06-54.59,10.9-4.54-22.92,64.78,12.57,30.17-8.9,3.71Z"/></svg>