<svg id="Layer_1" data-name="Layer 1" xmlns="http://www.w3.org/2000/svg" viewBox="0 0 1082 1081"><defs><style>.cls-1{fill:#e698c0;stroke:#1b1a16;stroke-miterlimit:10;stroke-width:5.17px;}.cls-2{fill:#353532;}</style></defs><circle class="cls-1" cx="540.59" cy="540.47" r="536.26"/><path class="cls-2" d="M200.38,436.65,133.85,408l3.26-7.56,29.08,12.54,25.09-58.17-29.09-12.55,3.31-7.67L232,363.24l-3.3,7.68-31-13.39-25.08,58.18,31,13.38Z"/><path class="cls-2" d="M246.89,341.17l-56.14-45.82,42.35-51.88,5.31,4.34-37.14,45.5,19.32,15.77,23.27-28.5,5.5,4.5-23.26,28.5,20.58,16.79,40.14-49.17,5.41,4.41Z"/><path class="cls-2" d="M310.91,235.36l-58.22-11.91,8.93-6.58,48.93,10.24,4.76-49.85,8.23-6.07-5.91,59.21,16.8,22.78-6.72,5Z"/><path class="cls-2" d="M457.2,194.49l-8.88-71.91,8.17-1L460.37,153l62.87-7.76-3.88-31.44,8.29-1,8.88,71.9-8.29,1-4.14-33.54-62.88,7.76,4.15,33.54Z"/><path class="cls-2" d="M563.17,186.3l10.93-71.62,66.2,10.11-1,6.78-58.06-8.87-3.77,24.66,36.37,5.55-1.08,7-36.36-5.56-4,26.26,62.74,9.58-1.05,6.9Z"/><path class="cls-2" d="M686.8,187.72l-19.21-56.23,10.21,4.37,15.94,47.37,45.39-21.14,9.4,4-54,24.89-11.13,26-7.68-3.29Z"/><path class="cls-2" d="M796.09,293.25l57.41-44.19,5,6.52-25.1,19.32,38.64,50.2,25.1-19.32,5.1,6.62-57.41,44.19-5.1-6.62,26.78-20.61-38.64-50.2-26.78,20.62Z"/><path class="cls-2" d="M857,380.34l67.3-26.83,24.8,62.21-6.38,2.54L921,363.7l-23.16,9.23,13.62,34.18-6.6,2.63-13.63-34.17-24.67,9.83,23.5,59L883.56,447Z"/><path class="cls-2" d="M918.3,487.7l38.81-45,1.39,11-32.81,37.71,41.18,28.48,1.28,10.15L919.35,496l-28.09,3.55-1-8.29Z"/><path class="cls-2" d="M882.81,635.42,950,662.53l-3.08,7.63-29.37-11.85-23.71,58.75,29.38,11.85-3.13,7.75-67.19-27.12L856,701.8l31.34,12.64,23.7-58.74-31.33-12.65Z"/><path class="cls-2" d="M838.56,732l57.19,44.48-41.11,52.86-5.41-4.21,36.06-46.36L865.6,763.45l-22.59,29-5.61-4.36,22.59-29-21-16.31-39,50.11-5.51-4.29Z"/><path class="cls-2" d="M777,839.24l58.48,10.56-8.78,6.79-49.15-9.1-3.6,50-8.08,6.26,4.52-59.34L753.1,822l6.61-5.12Z"/><path class="cls-2" d="M631.77,883.55l10.56,71.68-8.15,1.2-4.61-31.33-62.68,9.23,4.62,31.34-8.27,1.21L552.68,895.2,561,894l4.92,33.44,62.68-9.23-4.93-33.44Z"/><path class="cls-2" d="M526,894.22l-9.27,71.86-66.41-8.57.88-6.8,58.25,7.51,3.19-24.73-36.49-4.71.91-7,36.49,4.71,3.39-26.35L454,892l.9-6.92Z"/><path class="cls-2" d="M402.38,895.7l20.53,55.76-10.31-4.12-17.06-47-44.87,22.19-9.5-3.79,53.45-26.16,10.51-26.28,7.76,3.1Z"/><path class="cls-2" d="M290.64,792.77l-56.37,45.51-5.17-6.4L253.74,812,214,762.69l-24.65,19.9-5.24-6.5,56.37-45.51,5.24,6.5-26.29,21.23,39.79,49.28,26.3-21.22Z"/><path class="cls-2" d="M227.7,707.12l-66.65,28.41-26.26-61.59,6.31-2.69,23,54,22.94-9.78-14.42-33.83,6.54-2.79,14.42,33.84L218,702.29l-24.89-58.38,6.43-2.74Z"/><path class="cls-2" d="M163.88,601.26l-37.74,45.9-1.65-11,31.92-38.47-41.84-27.5-1.52-10.12L162.64,593l28-4.21,1.25,8.26Z"/></svg>