<svg id="Layer_1" data-name="Layer 1" xmlns="http://www.w3.org/2000/svg" viewBox="0 0 1082 1081"><defs><style>.cls-1{fill:#f79b83;stroke:#1b1a16;stroke-miterlimit:10;stroke-width:5.17px;}.cls-2{fill:#353532;}</style></defs><circle class="cls-1" cx="540.59" cy="540.47" r="536.26"/><path class="cls-2" d="M247.52,378.62l-69.93-53,6-7.94,30.57,23.16,46.32-61.14-30.57-23.17,6.11-8.06,69.93,53-6.11,8.06-32.62-24.71L220.92,346l32.62,24.72Z"/><path class="cls-2" d="M298.06,248.2c-13.15-22-7.52-50,26.2-70.14s61.14-11.86,74.29,10.19,7.26,50.17-26.33,70.21S311.28,270.37,298.06,248.2Zm91.42-54.54C378.34,175,356,169,328.59,185.32S295.86,224.18,307,242.86s33.66,24.58,60.89,8.34S400.62,212.33,389.48,193.66Z"/><path class="cls-2" d="M468.31,217l-16.16-77.75-41.84,8.69-1.69-8.13,93.28-19.39,1.69,8.13-41.54,8.64L478.21,215Z"/><path class="cls-2" d="M575.72,208.46,565.28,206l67.42-74.27,6.91,1.62,27.1,96.5-11.47-2.69L647.83,200l-53.36-12.55Zm25.1-28.22,44.39,10.44-12.58-46.09Z"/><path class="cls-2" d="M728.36,162.87l8,5.19,24.21,104.55,40.59-62.39,8.36,5.43-47.84,73.54-8-5.19L729.51,179.65,689,241.92l-8.48-5.52Z"/><path class="cls-2" d="M855.05,259.73l28.73,40.9c20.83,29.65,16.2,53-4.8,67.77-20.51,14.41-45.64,13.06-67-17.34l-28.73-40.9ZM854,272.66,795.9,313.45l23,32.75c16.23,23.1,36.5,26.21,53.67,14.15,17.42-12.24,20.46-32.09,4.4-55Z"/><path class="cls-2" d="M343.39,838.1c.87-11.66-2.51-24.11-21.54-40-15.55-12.95-30.38-19.21-38.11-9.93-6.38,7.66.47,16.9,20.75,37.14,18.72,18.34,36.67,35.25,22.65,52.08s-37.48,5.13-55.12-9.56c-24.37-20.3-29.4-39-27.25-53.16l8.93,2.72c-.56,12.7,3,26.86,23.75,44.15,16.48,13.73,32.31,20.43,41.11,9.87,8.31-10-1.5-21.09-20.83-40.34-18.05-18-35.05-33.9-22.39-49.1s35.11-4.17,52.17,10c23.67,19.71,26.88,36.15,25,48.54Z"/><path class="cls-2" d="M358.52,921.72l29.65-82.57L444.3,859.3c17.77,6.38,29,18.44,22.83,35.63s-22.66,19.3-40.28,13l-46.76-16.79-12.19,34Zm36.22-71.39-11.84,33,47.61,17.1c10.52,3.77,22.27,3.66,26.86-9.13s-4.5-20.07-15-23.84Z"/><path class="cls-2" d="M489.89,957.65l9.52-87.21,9.9,1.08-9.51,87.21Z"/><path class="cls-2" d="M653.32,930.35C647.87,938.13,634.94,954.6,604,959c-35.29,5-59.61-10.65-63.54-38.46s14.84-49.37,51.48-54.55c31-4.37,47.31,7.81,52.58,11.64L638,884.32c-10.07-5.44-22-13.21-45-10-29.46,4.16-45.52,21.07-42.19,44.69s23.46,35.43,52.76,31.29c23-3.25,33.79-15.6,41.81-24.66Z"/><path class="cls-2" d="M712.62,885.91l-67.33-25.38,11.94-6.17L713.77,876,729,817.28l11-5.69-18.4,69.67,15.73,30.46-9,4.64Z"/><path class="cls-2" d="M738,782.41,749,773l9.8,11.5L795.42,834l-4.6,3.92-43.08-44Zm58.48,71.18,13.45-11.46,10.28,12.06-13.45,11.46Z"/></svg>