<svg xmlns="http://www.w3.org/2000/svg" viewBox="0 0 1082 1081"><defs><style>.a{fill:#f79b83;stroke:#1b1a16;stroke-miterlimit:10;stroke-width:5.17px;}.b{fill:#353532;}</style></defs><circle class="a" cx="541" cy="540.5" r="536.26"/><path class="b" d="M211.22,402.77,146.3,367.43l4-7.38L178.7,375.5l30.9-56.76-28.38-15.45,4.07-7.49,64.93,35.34-4.08,7.49-30.28-16.49L185,378.91l30.29,16.49Z"/><path class="b" d="M245.05,290.33l-31.19-32.15,6-5.85,31.19,32.15c13.2,13.61,26.51,8.32,40.21-5s19.39-26.43,6.19-40l-31.19-32.15,6-5.85,31.18,32.15c18.61,19.18,6.63,37.54-7.25,51S263.66,309.51,245.05,290.33Z"/><path class="b" d="M310.64,174l7.14-3.65,86.55,26.24L375.8,140.75l7.48-3.82,33.62,65.83-7.14,3.65-86.38-26.18L351.85,236l-7.59,3.88Z"/><path class="b" d="M527.19,180.18l-7.15,1.2-2.34-13.92-.25,0c-5.11,10.28-15.31,19.47-35.13,22.81-28.36,4.77-49.69-7.78-53.66-31.36-3.88-23.09,11.32-41.65,43.07-47,26.35-4.43,39.22,3.86,44.19,8.06l-5.83,5.23c-7.71-4.38-17-9.66-38.19-6.09-24.34,4.09-37.87,18.76-34.54,38.58s21.29,29.19,44.38,25.31c21.46-3.61,35-16.47,32.94-33.54l0-.12-31.87,5.36-1.18-7,39-6.56Z"/><path class="b" d="M631,191.51a27.56,27.56,0,0,1-10.32.47c-28.4-3.68-10.63-36.92-35.74-40.17l-23.73-3.06-4.3,33.31L548.57,181l9.48-73.33,49.85,6.45c15.77,2,27.26,9.43,25.45,23.43-1.84,14.27-15,18.34-30.59,16.32l-1.9-.24,0,.25c12,9,6.68,28.71,22.33,30.73a33,33,0,0,0,8.76-.28Zm-65.51-75.83-3.38,26.13,42.28,5.46c9.34,1.21,18.94-.63,20.26-10.85s-7.55-14.06-16.88-15.27Z"/><path class="b" d="M681.72,180.9l-20.53-57.06,10.49,4.29,17,48.07,46-22.31,9.65,4-54.73,26.28-10.93,26.74-7.89-3.23Z"/><path class="b" d="M756.76,239.72l11.84,9-8.11,10.62-11.83-9Zm3.65-57.41c9.73-12.74,23.33-23.65,50.74-2.72,28.32,21.62,29.84,37.66,21,49.29-8,10.42-23.31,14.39-47.8-5.75l-10.19,13.35-6.77-5.17,14.28-18.71c15.44,12.27,32.41,25.06,43,11.21,7.34-9.61,3.37-22.24-17.36-38.07-23.47-17.91-33-7.56-40.07,1.74Z"/><path class="b" d="M170.94,708.69c-7.27-3.37-22.85-11.64-31.09-36.66-9.38-28.52,0-51,22.44-58.42s43.16,5,52.9,34.57c8.24,25,.57,40.4-1.82,45.34l-6.54-4.41c3-9.16,7.68-20.21,1.56-38.82C200.55,626.47,184.13,615.67,165,622s-25.89,24.73-18.1,48.42c6.13,18.61,18,25.7,26.68,31Z"/><path class="b" d="M175.31,748.56l60-43.21,4.91,6.81L214,731.05l37.78,52.45L278,764.61l5,6.92-60,43.21-5-6.92,28-20.16L208.2,735.22l-28,20.15Z"/><path class="b" d="M258.08,849.18l45.28-58.44,54,41.85-4.29,5.53-47.38-36.7-15.58,20.11,29.67,23-4.44,5.74-29.68-23-16.6,21.42,51.21,39.67L315.92,894Z"/><path class="b" d="M432.56,929.53c-7.28,3.35-23.67,9.86-48.06-.08-27.81-11.33-38.89-33-30-54.94s31.74-29.66,60.61-17.89c24.39,9.94,31.14,25.74,33.35,30.77l-7.6,2.12c-5-8.23-10.41-19-28.56-26.34-23.21-9.47-42.08-4-49.67,14.65s2.06,35.74,25.15,45.16c18.15,7.39,31.22,3,40.91-.23Z"/><path class="b" d="M465.1,951.51,472,877.9l8.37.79-3.59,38.39,64.15-32.74,13.81,1.29-59.12,29.5,55.16,44.39-15-1.4-48.25-39L476,924.93l-2.56,27.37Z"/><path class="b" d="M615.55,878l9.91-3.63,56.94,47.86L695,848.88l9.44-3.46,25.4,69.43L722,917.74,700.5,859.06l-12.24,71-5.73,2.1L627.32,885.7l21.51,58.79-7.89,2.88Z"/><path class="b" d="M773,888.27l-45.28-58.44,54-41.85,4.29,5.53-47.38,36.71,15.59,20.11,29.67-23,4.45,5.74-29.68,23,16.61,21.42,51.19-39.67,4.37,5.63Z"/><path class="b" d="M855.77,760.33c-19.07-10.21-27.14-32.87-11.52-62s39-35.11,58.09-24.9,27,33.1,11.46,62.15S875,770.61,855.77,760.33Zm42.36-79.08c-16.15-8.65-34.92-3.25-47.6,20.41s-6.76,42.28,9.39,50.93,35,3.15,47.59-20.41S914.28,689.91,898.13,681.25Z"/><path class="b" d="M918.94,645.39l-44.09-7.89,1.48-8.26,44.09,7.88c18.67,3.34,26.38-8.73,29.74-27.52s.3-32.77-18.36-36.11l-44.09-7.89,1.48-8.26,44.09,7.88c26.3,4.7,27.3,26.6,23.89,45.64S945.25,650.09,918.94,645.39Z"/><path class="b" d="M959.72,499.09l-66.6,6.69,3.6,35.83-7,.7-8-79.89,7-.7,3.57,35.58,66.6-6.69Z"/><path class="b" d="M859.72,452.56l-3.3-11.76,12.26-3.44,50.82-10.53,1.38,4.9L872,449.13ZM934.84,433l-4-14.34,12.86-3.6,4,14.34Z"/></svg>