<svg xmlns="http://www.w3.org/2000/svg" viewBox="0 0 1082 1081"><defs><style>.a{fill:#80bfc2;stroke:#1b1a16;stroke-miterlimit:10;stroke-width:5.17px;}.b{fill:#353532;}</style></defs><circle class="a" cx="540.59" cy="540.47" r="536.26"/><path class="b" d="M206.06,412.29c6.47-16.47,1.36-25-13.92-31l-41.8-16.44,3.07-7.81,43.82,17.22c19.89,7.82,22.33,23.55,15.44,41.07-10,25.47-28.19,24.75-44,16.34l2.84-7.23C185.63,431.19,198.33,432,206.06,412.29Z"/><path class="b" d="M199.48,343.79c-17.24-13.07-21.67-36.71-1.68-63.07s44-28.57,61.27-15.5,21.51,36.91,1.59,63.17S216.81,356.94,199.48,343.79Zm54.2-71.48c-14.6-11.07-34-8.68-50.2,12.71s-13.3,40.71,1.3,51.78,34.06,8.58,50.21-12.71S268.28,283.39,253.68,272.31Z"/><path class="b" d="M259.81,217l6.67-5.1,40.58,53.06,45-34.4,4.33,5.66-51.65,39.5Z"/><path class="b" d="M340.1,161.8l7.65-3.46,27.5,60.88,51.6-23.31,2.94,6.5-59.26,26.76Z"/><path class="b" d="M428,163.08c-3.52-21.34,9.53-41.55,42.17-46.93s51.61,9.55,55.13,30.89-9.78,41.59-42.3,47S431.53,184.55,428,163.08Zm88.51-14.59c-3-18.08-18.69-29.67-45.18-25.31s-37.65,20.39-34.67,38.47,18.81,29.66,45.18,25.31S519.48,166.57,516.5,148.49Z"/><path class="b" d="M551.15,185.88l8.23-73.46L627.29,120l-.78,7L567,120.31,563.9,147.5l37.3,4.18-.79,7.08-37.3-4.18-3.62,32.24Z"/><path class="b" d="M747,249.77a27.43,27.43,0,0,1-9.82-3.23c-25.25-13.5,3.14-38.29-19.19-50.22L696.85,185,681,214.67l-7.41-4,34.85-65.2,44.33,23.69c14,7.5,22.15,18.48,15.5,30.94-6.78,12.68-20.48,11.85-34.39,4.41l-1.69-.9-.12.23c8.08,12.68-3.92,29.21,10,36.65a33.87,33.87,0,0,0,8.29,2.84Zm-34.39-94.13-12.42,23.23L737.75,199c8.3,4.44,17.93,6.13,22.79-3s-2.07-15.83-10.38-20.27Z"/><path class="b" d="M761.16,264.3l47-57.1,6.49,5.33-47,57.1Z"/><path class="b" d="M856.3,344c-8-.53-25.5-2.64-42.18-23-19-23.25-18.38-47.6-.06-62.58s42.05-10.89,61.79,13.24c16.68,20.39,15,37.5,14.6,43l-7.69-1.77c-.49-9.63-.1-21.62-12.51-36.79-15.87-19.4-35.07-23.59-50.63-10.86s-15.27,32.38.52,51.69c12.4,15.17,26,17.52,36,19.34Z"/><path class="b" d="M851.18,369.2l67.71-29.68,27.44,62.58-6.41,2.81L915.85,350l-23.31,10.22,15.08,34.38L901,397.53,885.9,363.15,861.08,374l26,59.32-6.53,2.86Z"/><path class="b" d="M167.52,737.57l62.58-39.38L266.49,756l-5.93,3.73L228.64,709,207.1,722.58l20,31.78L221,758.22l-20-31.77L178,740.88l34.5,54.82-6,3.79Z"/><path class="b" d="M272.24,764.47l7.38,6.82L261.9,841.23l68.44-23,6.54,6-80.37,26.36-4.39-4.06Z"/><path class="b" d="M315.47,897,350,831.61l60.4,31.94-3.27,6.19-53-28-11.89,22.49,33.18,17.55-3.39,6.41L338.9,870.63l-12.68,24,57.25,30.28-3.33,6.3Z"/><path class="b" d="M497,960.83a27.54,27.54,0,0,1-10.33-.39c-28-6-7.55-37.66-32.32-43l-23.39-5-7,32.85-8.21-1.76,15.47-72.29,49.15,10.52c15.55,3.33,26.4,11.63,23.44,25.45-3,14.06-16.4,17-31.83,13.74l-1.86-.39-.06.24c11.27,10,4.3,29.16,19.73,32.46a33,33,0,0,0,8.76.44Zm-59.06-81-5.51,25.76,41.68,8.92c9.21,2,18.93.93,21.09-9.15s-6.37-14.64-15.58-16.61Z"/><path class="b" d="M558.71,931.47l-43.15-42.59,11.31-.66,36.13,36,31.82-40,10.42-.61-38,47.35,1.7,28.83-8.51.5Z"/><path class="b" d="M658.54,868.42l37.73-18.72c27.35-13.57,46.23-6.74,55.84,12.63,9.39,18.92,5,39.68-23,53.59L691.4,934.64ZM669.17,871l26.58,53.57,30.21-15c21.31-10.58,26.49-27.06,18.62-42.91-8-16.07-24.11-21.12-45.2-10.66Z"/><path class="b" d="M797,875.21l-6.69,6.07L771,799l4.43-4,79.93,27.31L848,829l-22.42-7.85-34.21,31Zm-7.6-30.91,28.47-25.82-38-13.29Z"/><path class="b" d="M861.44,764.44l-60.08,8.19,6.38-9.36,50.57-6.66L846.06,707l5.88-8.62,14.3,59,23.88,16.26-4.8,7.05Z"/></svg>