<svg id="Layer_1" data-name="Layer 1" xmlns="http://www.w3.org/2000/svg" viewBox="0 0 1082 1081"><defs><style>.cls-1{fill:#80bfc2;stroke:#1b1a16;stroke-miterlimit:10;stroke-width:5.17px;}.cls-2{font-size:127.24px;}.cls-2,.cls-3{fill:#353532;font-family:WeddingGothicATF-Book, Wedding Gothic ATF;}.cls-3{font-size:127.24px;}</style></defs><circle class="cls-1" cx="540.59" cy="540.47" r="536.26"/><text class="cls-2" transform="translate(195.96 450.84) rotate(-68.54)">j</text><text class="cls-2" transform="translate(223.21 373.77) rotate(-52.82)">o</text><text class="cls-2" transform="translate(292.19 285.28) rotate(-37.41)">l</text><text class="cls-2" transform="translate(356.15 235.67) rotate(-24.31)">l</text><text class="cls-2" transform="translate(424.59 201.17) rotate(-9.36)">o</text><text class="cls-2" transform="matrix(0.99, 0.11, -0.11, 0.99, 535.47, 184.13)">f</text><text class="cls-2" transform="translate(616.75 194.4) rotate(16.26)"> </text><text class="cls-2" transform="translate(659.7 203.27) rotate(28.12)">r</text><text class="cls-2" transform="translate(748.97 254.28) rotate(39.43)">i</text><text class="cls-2" transform="matrix(0.63, 0.77, -0.77, 0.63, 779.36, 274.41)">c</text><text class="cls-2" transform="matrix(0.4, 0.92, -0.92, 0.4, 844.85, 354.75)">e</text><text class="cls-3" transform="translate(159.12 724.21) rotate(57.82)">e</text><text class="cls-3" transform="translate(219.42 816.32) rotate(42.77)">v</text><text class="cls-3" transform="translate(301.52 889.58) rotate(27.87)">e</text><text class="cls-3" transform="matrix(0.98, 0.21, -0.21, 0.98, 400.26, 940.26)">r</text><text class="cls-3" transform="matrix(1, -0.06, 0.06, 1, 515.69, 962.92)">y</text><text class="cls-3" transform="translate(618.27 954.11) rotate(-13.97)"> </text><text class="cls-3" transform="translate(677.26 941.65) rotate(-26.39)">d</text><text class="cls-3" transform="translate(787.57 883.76) rotate(-42.22)">a</text><text class="cls-3" transform="translate(860.1 817.72) rotate(-55.74)">y</text></svg>