<svg id="Layer_1" data-name="Layer 1" xmlns="http://www.w3.org/2000/svg" viewBox="0 0 1082 1081"><defs><style>.cls-1{fill:#80bfc2;stroke:#1b1a16;stroke-miterlimit:10;stroke-width:5.17px;}.cls-2{fill:#353532;}</style></defs><circle class="cls-1" cx="540.59" cy="540.47" r="536.26"/><path class="cls-2" d="M269.62,323.43c12.77-15.59,10.23-26.68-4.24-38.53l-39.6-32.43,6.06-7.4,41.51,34c18.84,15.44,16,33.34,2.39,49.94-19.75,24.12-39.22,17-53.45,2.33l5.6-6.84C240.87,336.8,254.37,342.05,269.62,323.43Z"/><path class="cls-2" d="M297.25,251.31l-27.77-42.82,8-5.2,27.78,42.82c11.76,18.12,27.8,15.14,46.05,3.31s27.5-25.27,15.75-43.4L339.3,163.2l8-5.21,27.77,42.82c16.57,25.55-.86,43.43-19.35,55.42S313.82,276.86,297.25,251.31Z"/><path class="cls-2" d="M481.12,138.16c-8.51-7.32-20.06-11.81-43.16-6.15-18.87,4.62-32.17,12.5-29.41,23.77,2.28,9.3,13.32,9.28,40.53,5.15,24.85-4,48.15-8.21,53.15,12.22S484.81,205,463.4,210.27c-29.57,7.25-46.91.45-56.61-9.27l7.2-5.35c9.49,7.68,22.45,13,47.66,6.84,20-4.89,34.21-13.3,31.07-26.12-3-12.11-17.15-10.88-43.05-6.92-24.18,3.68-46.18,7.73-50.7-10.72s16.82-29.5,37.52-34.57c28.73-7,43.26-.15,51.76,8.37Z"/><path class="cls-2" d="M555.43,199l4.48-76.14-41-2.4.47-8,91.33,5.37-.47,8-40.67-2.4-4.48,76.14Z"/><path class="cls-2" d="M623.26,208.9l21.64-81.43,9.25,2.46-21.64,81.42Z"/><path class="cls-2" d="M758,249.26c-8.64,2.94-28,8.39-54.46-5.75-30.19-16.12-40.19-42-27.49-65.8s39.46-29.88,70.8-13.15c26.48,14.14,32.26,32.85,34.18,38.8l-8.86,1.52c-4.73-9.92-9.58-22.7-29.27-33.22-25.2-13.46-47.23-9.45-58,10.76s-1.88,40.75,23.19,54.14c19.7,10.52,35,7,46.39,4.56Z"/><path class="cls-2" d="M762.39,278.16l61-58.15,53.76,56.33-5.77,5.51-47.15-49.41-21,20,29.53,30.94-6,5.71-29.53-30.95-22.35,21.32,51,53.4L820,338.49Z"/><path class="cls-2" d="M124.41,649.1l-3.52-9.67L216,654.55l2.32,6.41-63.29,72.51-3.86-10.63,17.94-20.25-18-49.47Zm35.87,5.33,14.95,41.16,30.42-34.34Z"/><path class="cls-2" d="M242.76,718.66l5.72,7.12-9.29,102.64,55.75-44.74,6,7.47-65.7,52.72-5.72-7.12,9.27-102.44L183.14,779l-6.08-7.57Z"/><path class="cls-2" d="M324.25,811.4l41.18,24.66c29.85,17.88,34.92,40.18,22.25,61.33-12.37,20.65-34.94,29.27-65.54,10.94L281,883.67Zm4.12,11.76-35,58.46,33,19.75c23.26,13.93,42.26,8.74,52.61-8.55,10.51-17.54,5.42-36.13-17.59-49.92Z"/><path class="cls-2" d="M476.91,965.36l4.49-84.13,57.2,3.06c18.1,1,31.75,9,30.82,26.47s-15.51,24-33.47,23l-47.64-2.55-1.85,34.61Zm13.62-75.65-1.79,33.59,48.51,2.59c10.71.57,21.49-2.77,22.19-15.8s-9.69-17.22-20.4-17.79Z"/><path class="cls-2" d="M612.36,963.51l-21-81.59,75.41-19.39,2,7.72-66.15,17,7.23,28.09,41.42-10.65,2.06,8-41.43,10.65,7.7,29.91,71.48-18.37,2,7.86Z"/><path class="cls-2" d="M730.4,925.73l-8.77,5.4-4.35-96.22,5.8-3.57,83.78,47.38-9.63,5.92-23.45-13.49-44.84,27.57Zm-2-36.21,37.31-22.94-39.77-22.86Z"/><path class="cls-2" d="M886.36,767.19c1,9.08,2,29.15-17.63,51.85-22.39,25.88-49.85,29.93-70.25,12.28s-20.43-45.09,2.81-72c19.64-22.7,39.17-24.21,45.4-24.77l-.48,9C835.48,746,822,747.9,807.34,764.79c-18.69,21.6-19.64,44-2.32,59s39.34,10.83,57.93-10.66c14.61-16.89,14.61-32.62,14.69-44.24Z"/><path class="cls-2" d="M921.55,738l-77.74-32.45,30-71.86,7.36,3.07-26.31,63L881.62,711,898.1,671.5l7.63,3.18-16.48,39.48,28.5,11.89L946.18,658l7.5,3.12Z"/></svg>