<svg id="Layer_1" data-name="Layer 1" xmlns="http://www.w3.org/2000/svg" viewBox="0 0 1082 1081"><defs><style>.cls-1{fill:#e698c0;stroke:#1b1a16;stroke-miterlimit:10;stroke-width:5.17px;}.cls-2{fill:#353532;}</style></defs><circle class="cls-1" cx="540.59" cy="540.47" r="536.26"/><path class="cls-2" d="M185.28,552.24l-79.95-6,.69-9.09,41.69,3.16L111,471.34l1.13-15,33.12,63.53,47.07-60.65-1.22,16.23-41.38,53.06,6.53,12.4L186,543.16Z"/><path class="cls-2" d="M197.91,447.06,123,418.56l26.34-69.27L156.4,352l-23.1,60.76,25.8,9.81,14.47-38.05,7.35,2.79-14.47,38.06,27.48,10.45,25-65.66,7.22,2.74Z"/><path class="cls-2" d="M235.89,358l-64.55-47.55,43.94-59.66,6.11,4.5-38.54,52.33L205.07,324l24.14-32.78,6.34,4.67L211.4,328.61,235.07,346l41.66-56.55,6.22,4.58Z"/><path class="cls-2" d="M295.89,282.25,247.3,218.47l43.37-33c13.72-10.45,28.55-13.08,38.67.21s3.54,27-10.07,37.33L283.15,250.5l20,26.23ZM259.15,219l19.4,25.47,36.78-28c8.12-6.18,13.88-15.25,6.35-25.13s-17.63-6.52-25.76-.33Z"/><path class="cls-2" d="M422.2,205.09l-18.43-78,53.05-12.53c16.79-4,31.4-.32,35.24,15.93s-7.74,26.07-24.39,30L423.48,170.9l7.58,32.1Zm-7.82-72.74,7.35,31.16,45-10.62c9.94-2.35,18.89-8.29,16-20.38s-13.45-13.13-23.39-10.78Z"/><path class="cls-2" d="M520.3,143.57c2-23.37,21-41.16,56.8-38.15s51.73,23.73,49.77,47.11-21.32,41.14-56.94,38.14S518.32,167.09,520.3,143.57Zm96.94,8.15c1.67-19.8-11.78-36.16-40.79-38.6s-45,11.45-46.66,31.25,11.91,36.18,40.79,38.6S615.58,171.52,617.24,151.72Z"/><path class="cls-2" d="M654.48,169.86l19.57-44.46,8.33,3.67-19.56,44.46c-8.28,18.82,2.46,30,21.41,38.37s34.47,8.69,42.76-10.13l19.56-44.46,8.34,3.66-19.57,44.47c-11.67,26.52-35,22-54.2,13.54S642.81,196.39,654.48,169.86Z"/><path class="cls-2" d="M812.44,309.17a29.66,29.66,0,0,1-9.53-5.9c-23.18-20.66,13.08-39.55-7.43-57.82l-19.36-17.27-24.24,27.2-6.8-6.06,53.34-59.85,40.7,36.26c12.87,11.48,18.64,25.13,8.45,36.56-10.38,11.64-24.6,7.28-37.38-4.1l-1.54-1.38-.19.2c5.29,15.44-11.58,29.8,1.2,41.18a36,36,0,0,0,8,5.11Zm-12.27-108-19,21.33,34.51,30.76c7.62,6.79,17.35,11,24.78,2.68s1.85-17.21-5.78-24Z"/><path class="cls-2" d="M823.06,328.17,887.87,281l5.36,7.36-64.81,47.21Z"/><path class="cls-2" d="M921,328.19l3.44,8L889.81,428l62.52-26.84,3.59,8.37-73.68,31.63-3.43-8,34.57-91.59L851,368.31l-3.65-8.49Z"/><path class="cls-2" d="M896.41,562l-.63-7.84,15.27-1.21,0-.28c-10.62-6.49-19.59-18.38-21.32-40.11-2.47-31.09,13.1-53,39-55,25.32-2,43.93,16.17,46.69,51,2.3,28.89-7.88,42-12.88,47l-5.11-6.8c5.46-7.91,12-17.43,10.2-40.68-2.12-26.69-16.68-42.7-38.42-41s-33.55,20.25-31.54,45.56c1.87,23.53,14.48,39.41,33.12,38.76h.13l-2.77-34.94,7.7-.61,3.4,42.78Z"/><path class="cls-2" d="M231.72,844.83l51.91-61.1L325.17,819c13.15,11.17,18.88,25.09,8.07,37.82s-25.58,9.23-38.63-1.85L260,825.59l-21.35,25.14Zm53.94-49.42-20.73,24.4,35.23,29.93c7.78,6.61,17.87,10.29,25.91.83s2.6-18.62-5.18-25.23Z"/><path class="cls-2" d="M367,847.72l8.29,3.79L345.18,917.4,401,942.94l-3.21,7-64.14-29.33Z"/><path class="cls-2" d="M434.8,960.35l13.27-79.08,73.09,12.27L519.9,901l-64.1-10.76-4.57,27.22,40.15,6.74-1.3,7.76-40.15-6.74-4.87,29,69.28,11.63-1.28,7.62Z"/><path class="cls-2" d="M550.6,973.58l-9.74,1.08,35.34-84.58,6.45-.71,52.85,74.81-10.7,1.19-14.69-21.15-49.79,5.52Zm13-32L605,937l-24.93-35.83Z"/><path class="cls-2" d="M715.54,870.13c-9.07-5.65-20.58-8.2-41.49.47C657,877.68,645.61,887,649.83,897.22c3.49,8.42,13.88,6.8,38.87-1,22.79-7.36,44.1-14.7,51.76,3.79s-11.77,32.51-31.14,40.54c-26.77,11.1-44.07,7.22-54.6-.52l6-6.07c10,5.84,23,9,45.82-.47C724.64,926,736.79,916,732,904.4c-4.54-11-17.7-7.75-41.49-.28-22.21,7-42.32,14-49.24-2.74s11.54-30.18,30.28-38c26-10.78,40.67-6.4,49.9.38Z"/><path class="cls-2" d="M787,896.25l-50.69-62.11,57.41-46.86,4.8,5.88-50.36,41.1,17.45,21.38,31.54-25.74,5,6.1-31.55,25.74,18.59,22.77,54.42-44.41,4.89,6Z"/></svg>