<svg xmlns="http://www.w3.org/2000/svg" viewBox="0 0 1077.7 1077.7"><defs><style>.cls-1{fill:#e698c0;stroke:#1b1a16;stroke-miterlimit:10;stroke-width:5.17px;}.cls-2{fill:#353532;}</style></defs><g id="Layer_2" data-name="Layer 2"><g id="Layer_1-2" data-name="Layer 1"><circle class="cls-1" cx="538.85" cy="538.85" r="536.26"/><path class="cls-2" d="M144.32,372.36l3.76-7.54,60,29.88,25.32-50.88,6.4,3.19-29.08,58.42Z"/><path class="cls-2" d="M249.39,333.94,193,285.75l44.53-52.14,5.34,4.56L203.79,283.9l19.42,16.59,24.47-28.64,5.53,4.72-24.46,28.65,20.68,17.66,42.21-49.42,5.44,4.64Z"/><path class="cls-2" d="M331.46,253l-38.81-54.83-29.5,20.88-4-5.73,65.77-46.56,4.05,5.73-29.28,20.74,38.8,54.82Z"/><path class="cls-2" d="M365.08,141.42c5.79,12.37,3.58,27.22-6.72,32.33l-2.12-4.51c4.89-3.42,8.23-13.16,3.25-23.8l-8.21,3.84-5.15-11,14.35-6.71Z"/><path class="cls-2" d="M475.74,133.66c-7.46-6.48-17.61-10.48-38-5.61-16.64,4-28.38,10.87-26,20.8,2,8.2,11.68,8.23,35.66,4.72,21.9-3.4,42.44-7,46.75,11s-15.48,28-34.36,32.52c-26.08,6.24-41.32.18-49.81-8.42l6.36-4.68c8.33,6.8,19.71,11.56,41.94,6.24,17.63-4.22,30.19-11.56,27.48-22.86-2.56-10.68-15-9.66-37.88-6.3-21.31,3.14-40.7,6.6-44.59-9.67s14.93-25.9,33.19-30.27c25.33-6.06,38.09.07,45.54,7.61Z"/><path class="cls-2" d="M565.34,185.55l11.58-73.29L644.66,123l-1.09,6.93-59.42-9.39-4.28,27.12,37.21,5.89L616,160.58l-37.21-5.88-5.08,32.16Z"/><path class="cls-2" d="M677.23,133.64l7.79,3.21-25.59,62L712,220.51l-2.73,6.61-60.32-24.9Z"/><path class="cls-2" d="M750.5,220.59l-8.2-60.3,9.39,6.4,6.67,50.75,49.78-12.28,8.66,5.9L757.57,225.4l-16.32,24-7.08-4.82Z"/><path class="cls-2" d="M876.92,276.13l4.74,7-55.41,37.73,32,47-5.91,4-36.74-53.94Z"/><path class="cls-2" d="M859.09,386.53l69.57-25.76,23.81,64.31-6.59,2.44L925,371.11l-24,8.87,13.08,35.33-6.83,2.52-13.07-35.32L868.72,392l22.56,60.95-6.7,2.49Z"/><path class="cls-2" d="M889.62,497.55l66.8-7-3.77-35.94,7-.73L968,534l-7,.73-3.75-35.69-66.8,7Z"/><path class="cls-2" d="M970.43,581.59c-13.63-1-25.49-10.22-24.89-21.7l5,.37c.58,5.93,7.43,13.61,19.15,14.49l.67-9,12.1.91-1.18,15.79Z"/><path class="cls-2" d="M923.13,681.86c9.3-3.34,17.75-10.25,23.44-30.41,4.64-16.46,4.36-30.08-5.47-32.85-8.11-2.28-12.89,6.19-21.53,28.83-7.71,20.77-14.59,40.46-32.41,35.44S870.28,655.69,875.54,637c7.28-25.81,20-36.15,31.67-39.36l1,7.83c-10,3.95-19.71,11.56-25.91,33.56-4.92,17.46-4.64,32,6.54,35.15,10.57,3,15.78-8.42,24-30C920.46,624.06,926.9,605.44,943,610s15.32,25.68,10.22,43.75c-7.07,25.07-18.65,33.22-28.87,36Z"/><path class="cls-2" d="M831.5,738.74l57.61,46.76L845.9,838.75l-5.46-4.43,37.91-46.7L857,770.31l-23.74,29.26-5.55-4.51,23.74-29.25-25.29-20.52Z"/><path class="cls-2" d="M820.28,861.54l-6.69,5.13-40.77-53.23L727.71,848l-4.35-5.67,51.8-39.68Z"/><path class="cls-2" d="M708.37,881.37l56.33,23-10.24,4.94-47.3-19.59L692.92,939l-9.43,4.54,17.17-58.46L688.08,859l7.7-3.72Z"/><path class="cls-2" d="M602.75,962.29l-8.39.72-5.75-66.8L532,901.08l-.61-7.12,65-5.59Z"/><path class="cls-2" d="M515.2,892.6l-11.59,73.29-67.73-10.7,1.09-6.94,59.42,9.39,4-25.23-37.21-5.88,1.14-7.19,37.21,5.88,4.24-26.87-64.2-10.14,1.11-7.07Z"/><path class="cls-2" d="M403.38,865l-26.44,61.75L410.16,941l-2.76,6.45-74.07-31.71,2.76-6.45,33,14.12,26.43-61.75Z"/><path class="cls-2" d="M290.55,894.55c7.54-11.4,21.36-17.26,31.09-11.12l-2.75,4.15c-5.46-2.39-15.51-.16-22,9.64l7.56,5-6.7,10.12-13.2-8.74Z"/><path class="cls-2" d="M226.23,804.15c-1.64,9.75.24,20.5,15,35.33,12.08,12.12,24.07,18.56,31.31,11.35,6-6,.93-14.27-14.57-32.9-14.32-16.91-28.11-32.55-15-45.62s32-1.39,45.66,12.36c18.93,19,21.7,35.16,18.79,46.9l-7.31-3c1.47-10.65-.41-22.84-16.54-39C270.8,776.69,258,769.81,249.76,778c-7.78,7.75-.4,17.88,14.38,35.6,13.79,16.55,26.85,31.29,15,43.1s-29.89.76-43.14-12.54c-18.38-18.45-19.8-32.54-17.26-42.83Z"/><path class="cls-2" d="M223.62,700.7l-68.53,28.43-26.28-63.34,6.49-2.69,23,55.56,25.36-10.52-14.44-34.8,6.61-2.74,14.43,34.8,30.08-12.48Z"/><path class="cls-2" d="M120.92,632.32,119.61,624l66.23-10.42L177,557.44l7.06-1.11,10.15,64.46Z"/><path class="cls-2" d="M157,524.51,109.82,563l.56-11.36,39.82-32.16-36.45-36.07.52-10.46L157.4,516l29,1.43-.43,8.54Z"/></g></g></svg>