<svg xmlns="http://www.w3.org/2000/svg" viewBox="0 0 1082 1081"><defs><style>.a{fill:#80bfc2;stroke:#1b1a16;stroke-miterlimit:10;stroke-width:5.17px;}.b{fill:#353532;}</style></defs><circle class="a" cx="540.59" cy="540.47" r="536.26"/><path class="b" d="M119.14,458.82,131,418.4c8.57-29.31,26.39-38.55,47.15-32.48,20.27,5.92,32.59,23.18,23.81,53.22L190.1,479.57Zm9.08-6.1,57.4,16.79,9.46-32.37c6.68-22.83-1.93-37.81-18.91-42.78-17.22-5-31.88,3.41-38.49,26Z"/><path class="b" d="M189.1,363.1c-17.94-12.1-23.67-35.46-5.17-62.89s42.37-31,60.31-18.87,23.52,35.66,5.09,63S207.14,375.27,189.1,363.1Zm50.16-74.38c-15.2-10.24-34.41-6.78-49.43,15.48s-11,41.37,4.17,51.62,34.48,6.68,49.43-15.48S254.45,299,239.26,288.72Z"/><path class="b" d="M242.92,230.89l6.27-5,90.05,8.53-39.06-49.09,6.58-5.23,46,57.86-6.27,5-89.87-8.52,39,49-6.67,5.3Z"/><path class="b" d="M356.68,147.37c6.06,12.19,4.22,27-5.92,32.37l-2.21-4.44c4.79-3.52,7.88-13.31,2.66-23.78l-8.09,4-5.39-10.82,14.12-7Z"/><path class="b" d="M437,202.3l-18.78-64.24-34.56,10.1-2-6.72,77.07-22.53,2,6.72-34.32,10,18.79,64.24Z"/><path class="b" d="M542.71,111.24,593.26,116c19.64,1.86,28.57,10.12,27.49,21.52-.8,8.36-7.27,14.65-17.18,15.38l0,.25c10.88,2.56,16.64,9.24,15.73,18.87-1.24,13-11.83,19.59-32.35,17.65l-51.18-4.85Zm4.62,40.32-2.56,27,42.7,4.05c12.28,1.16,21.87-1.51,22.83-11.64s-8.88-14.26-18.76-15.2Zm.68-7.22,44.22,4.19c11.52,1.09,19-3.7,19.72-11.17.81-8.62-6.81-13.17-19.35-14.36l-42.19-4Z"/><path class="b" d="M637.35,198.89l26.48-69,63.79,24.48-2.5,6.53-56-21.47-9.11,23.76,35,13.45-2.6,6.77-35-13.45-9.71,25.3,60.47,23.21-2.56,6.65Z"/><path class="b" d="M846.15,267.11c1.38-9.75-.77-20.41-15.89-34.8-12.35-11.76-24.47-17.85-31.49-10.48-5.79,6.08-.55,14.23,15.38,32.38,14.71,16.48,28.86,31.7,16.13,45.06s-31.8,2.22-45.81-11.12c-19.35-18.42-22.54-34.46-19.94-46.22l7.35,2.79c-1.18,10.65,1,22.75,17.51,38.45,13.08,12.46,26,19,34,10.6,7.54-7.92-.08-17.82-15.26-35.09-14.17-16.12-27.57-30.46-16.08-42.54s29.76-1.54,43.31,11.36c18.8,17.9,20.58,31.9,18.31,42.22Z"/><path class="b" d="M827.26,329.94l64.26-36.55,4.15,7.3-28.09,16,32,56.18,28.09-16,4.22,7.41-64.26,36.56-4.22-7.41,30-17.05-32-56.19-30,17.05Z"/><path class="b" d="M909.79,442.46l33.81-50.34,2.75,11-28.62,42.22,45.2,23.81,2.54,10.12-53.6-28.53-28,7-2.07-8.27Z"/><path class="b" d="M229.27,695.66l4.31,7.21L176.3,737.23l29.13,48.56-6.11,3.66L165.87,733.7Z"/><path class="b" d="M221.34,816.25l52-52.5,48.53,48.11-4.93,5-42.56-42.2-17.92,18.08,26.66,26.42-5.11,5.16L251.4,797.86l-19.08,19.25,46,45.6-5,5.06Z"/><path class="b" d="M324.42,901.07l33.76-57.8-31.1-18.16,3.53-6.05L400,859.56l-3.53,6-30.88-18-33.75,57.8Z"/><path class="b" d="M434.47,863.82c-4.64,12.8-16.67,21.7-27.52,18l1.69-4.66c5.85,1,15.07-3.48,19.06-14.48l-8.49-3.08,4.12-11.36,14.83,5.38Z"/><path class="b" d="M521,906.39c-4.51-8.75-12.44-16.2-33.09-19.19-16.88-2.44-30.29-.39-31.74,9.68-1.21,8.31,7.78,11.93,31.28,17.51,21.53,4.92,41.87,9.15,39.23,27.41S502,962,482.87,959.25c-26.44-3.83-38.32-15.06-43-26.16l7.61-2c5.2,9.37,14,18,36.53,21.23,17.88,2.59,32.21.42,33.87-11,1.57-10.83-10.37-14.49-32.75-19.78-20.88-4.95-40.12-8.9-37.73-25.39s23.38-18.48,41.89-15.8c25.69,3.72,35.25,14.1,39.37,23.83Z"/><path class="b" d="M638.37,949.11,622.05,884.2,587.13,893l-1.71-6.79,77.87-19.57,1.71,6.79-34.68,8.71L646.63,947Z"/><path class="b" d="M699,931.13l-8.06,4.07,3.29-84.47,5.34-2.69,69.76,47.63-8.86,4.46L740.94,886.6,699.7,907.4Zm.92-31.82L734.21,882l-33.08-22.93Z"/><path class="b" d="M747.62,819.35l6.33-5.51,43.87,50.37L840.52,827l4.68,5.38-49,42.7Z"/><path class="b" d="M868.38,805.78l-61.25-41.39,4.7-7L843.78,779l2.11-72,7.76-11.49-2.53,66,65.42-27L908.14,747l-57.39,23.56-.44,12.92,22.77,15.38Z"/></svg>