<svg xmlns="http://www.w3.org/2000/svg" viewBox="0 0 1082 1081"><defs><style>.a{fill:#80bfc2;stroke:#1b1a16;stroke-miterlimit:10;stroke-width:5.17px;}.b{font-size:127.24px;}.b,.c{fill:#353532;font-family:WeddingGothicATF-Book, Wedding Gothic ATF;}.c{font-size:127.24px;}</style></defs><circle class="a" cx="540.59" cy="540.47" r="536.26"/><text class="b" transform="translate(185.67 494.71) rotate(-73.7)">d</text><text class="b" transform="translate(214.46 391.72) rotate(-56.01)">o</text><text class="b" transform="translate(276.6 298.58) rotate(-38.5)">n</text><text class="b" transform="translate(363.48 233.54) rotate(-26.47)">’</text><text class="b" transform="translate(398.04 213.69) rotate(-16.3)">t</text><text class="b" transform="translate(477.01 191.81) rotate(-6.45)"> </text><text class="b" transform="matrix(1, 0.09, -0.09, 1, 520.03, 183.36)">b</text><text class="b" transform="matrix(0.93, 0.36, -0.36, 0.93, 622.61, 193.24)">e</text><text class="b" transform="translate(706.8 227.56) rotate(31.96)"> </text><text class="b" transform="translate(745.68 247.88) rotate(43.6)">s</text><text class="b" transform="translate(819.46 316.23) rotate(60.37)">h</text><text class="b" transform="translate(870.87 406.05) rotate(75.9)">y</text><text class="c" transform="matrix(0.51, 0.86, -0.86, 0.51, 157.76, 720.17)">l</text><text class="c" transform="matrix(0.71, 0.7, -0.7, 0.71, 210.13, 805.14)">e</text><text class="c" transform="matrix(0.86, 0.5, -0.5, 0.86, 289.37, 880.6)">t</text><text class="c" transform="matrix(0.94, 0.34, -0.34, 0.94, 376.76, 928.16)">’</text><text class="c" transform="translate(427.93 948.85) rotate(8.23)">s</text><text class="c" transform="translate(545.02 961.41) rotate(-3.91)"> </text><text class="c" transform="translate(599 959) rotate(-14.11)">t</text><text class="c" transform="matrix(0.89, -0.45, 0.45, 0.89, 687.62, 936.86)">a</text><text class="c" transform="matrix(0.75, -0.66, 0.66, 0.75, 784.27, 885.46)">l</text><text class="c" transform="matrix(0.56, -0.83, 0.83, 0.56, 859.55, 818.85)">k</text></svg>