<svg id="Layer_1" data-name="Layer 1" xmlns="http://www.w3.org/2000/svg" viewBox="0 0 1082 1081"><defs><style>.cls-1{fill:#e698c0;stroke:#1b1a16;stroke-miterlimit:10;stroke-width:5.17px;}.cls-2{fill:#353532;}</style></defs><circle class="cls-1" cx="540.59" cy="540.47" r="536.26"/><path class="cls-2" d="M114,576.38l-.19-8.4,66.78-1.51-1.28-56.61,7.12-.17,1.48,65Z"/><path class="cls-2" d="M188.71,494.34l-72.15-16.1,14.88-66.69,6.83,1.53-13.05,58.49,24.84,5.54,8.17-36.63,7.08,1.58-8.17,36.63,26.45,5.9,14.1-63.21,7,1.55Z"/><path class="cls-2" d="M222.92,385.33,163.26,355l-16.32,32.1-6.24-3.17,36.4-71.57,6.24,3.17-16.21,31.87,59.66,30.35Z"/><path class="cls-2" d="M268.39,314.68l-51.07-43.26L194,298.9l-5.34-4.52,51.89-61.27,5.35,4.52-23.11,27.29,51.07,43.25Z"/><path class="cls-2" d="M309,271.31l-43-60.15,55.59-39.73,4.07,5.7L276.88,212l14.8,20.71,30.54-21.83,4.21,5.9L295.9,238.58l15.75,22L364.34,223l4.15,5.8Z"/><path class="cls-2" d="M461.23,192.79a27.69,27.69,0,0,1-9,5.18c-26.88,9.86-26.47-27.83-50.25-19.11l-22.46,8.24,11.58,31.54-7.89,2.89-25.47-69.41L405,134.81c14.94-5.48,28.54-4.23,33.4,9,5,13.49-4.78,23.17-19.59,28.6l-1.79.66.08.24c14.85,2.41,19.19,22.37,34,16.94a33.47,33.47,0,0,0,7.65-4.3Zm-93.14-37,9.07,24.73,40-14.68c8.84-3.25,16.51-9.31,13-19s-13.19-9-22-5.74Z"/><path class="cls-2" d="M545.78,130.16c-6.26-7.61-15.57-13.22-36.39-11.8-17,1.17-29.69,6-29,16.14.57,8.38,10.13,10,34.27,10.54,22.08.28,42.86.13,44.12,18.54s-19.85,24.95-39.14,26.27C493,191.68,479,183.2,472.08,173.34l7-3.54c7.05,8.06,17.45,14.62,40.18,13.06,18-1.23,31.57-6.37,30.79-17.92-.75-10.92-13.2-12-36.19-12.45-21.46-.44-41.09-.25-42.22-16.88s19-23,37.62-24.25c25.9-1.78,37.42,6.36,43.5,15Z"/><path class="cls-2" d="M595.5,188.45c-1.81,13.5-11.66,24.76-22.92,23.51l.66-4.91c5.92-.11,13.83-6.5,15.23-17l-9-1.2,1.77-13.24,15.64,2.09Z"/><path class="cls-2" d="M697.14,140.62l7.15,3.63,29.62,85.46,28.44-55.92,7.49,3.81-33.52,65.89-7.14-3.63-29.57-85.28-28.39,55.8-7.6-3.87Z"/><path class="cls-2" d="M778.88,227.22c15.17-15.43,39.19-16.8,62.78,6.4s22.71,47.31,7.54,62.74-39.36,16.62-62.86-6.49S763.63,242.73,778.88,227.22Zm64,62.89c12.85-13.06,12.95-32.59-6.19-51.41s-38.67-18.39-51.51-5.33-12.87,32.68,6.19,51.42S830,303.18,842.85,290.11Z"/><path class="cls-2" d="M843.62,358.91l57.89-33.59-18.08-31.14,6.06-3.52,40.29,69.45-6,3.51-18-30.93-57.89,33.6Z"/><path class="cls-2" d="M870.91,411.74l71-20.49,18.94,65.65-6.72,1.94-16.61-57.58-24.45,7.05,10.4,36.07-7,2-10.4-36.07-26,7.51L898,480.06l-6.85,2Z"/><path class="cls-2" d="M949.35,567.9c7.94-5.83,14.06-14.82,13.78-35.69-.23-17.05-4.34-30-14.52-29.84-8.4.12-10.57,9.56-12.41,33.64-1.49,22-2.49,42.79-20.93,43s-23.83-21.19-24.09-40.53c-.35-26.72,8.89-40.2,19.11-46.57l3.15,7.21c-8.44,6.6-15.56,16.62-15.26,39.4.24,18.07,4.63,31.88,16.2,31.72,11-.14,12.69-12.51,14.42-35.44,1.63-21.4,2.51-41,19.18-41.23s21.9,20.2,22.15,38.9c.35,26-8.42,37-17.38,42.61Z"/><path class="cls-2" d="M241.77,850.56c-4.48-.48-8.5-3.44-11.14-6.71-5.12-6.33-6.36-16.78-5.79-30.65-15.71-2.85-27.29-8.88-36.24-20-9.43-11.68-13.2-25.65-.82-35.64,13.07-10.56,26.72-2,40.66,5.59,1.5-11.51,4.41-17.63,9.36-21.63,9.21-7.43,20.6-3,27.15,5.07,6.72,8.31,8.5,20.44-.9,28-8.51,6.88-18.26,4.12-28.34-.66-.82,8.51-1.91,24.77-2.43,33a98.55,98.55,0,0,0,35.59-3.73l5.84,7.23c-12.86,3.52-26.64,5.49-41.85,3.87-.71,11.69-.25,19.34,4.46,25.18,2.48,3.07,5.53,5,10.19,6.33Zm-16.43-44.64c.67-11.33,1.16-20.23,2.46-35.84-12.33-6.56-24.53-13.56-33.93-6-7.82,6.31-6.36,16.42.75,25.23C201.1,797.37,211.5,803.36,225.34,805.92Zm11.17-38.62c8.78,4.19,15.93,5.94,21.87,1.15,4.65-3.76,7.06-10.29,1.23-17.52-6.16-7.62-13.17-5.56-16.93-2.52C238.33,751.93,237.62,758.55,236.51,767.3Z"/><path class="cls-2" d="M403.23,890.17c-1.57-9.73-6.78-19.27-25.47-28.54-15.28-7.58-28.66-9.81-33.18-.68-3.73,7.52,3.68,13.75,24.27,26.38,18.93,11.37,36.95,21.72,28.75,38.25s-29.72,11.54-47.05,2.95c-23.94-11.87-31.73-26.24-32.74-38.24l7.86.48c2,10.52,7.7,21.43,28.1,31.55,16.19,8,30.48,10.42,35.63,0,4.86-9.81-5.35-17-25-29-18.3-11.2-35.35-20.93-27.95-35.87s28-10.28,44.73-2c23.25,11.53,29.1,24.37,30,34.9Z"/><path class="cls-2" d="M448.23,960,462,894.52l-35.25-7.4,1.44-6.85,78.58,16.49-1.44,6.85-35-7.34-13.75,65.5Z"/><path class="cls-2" d="M510.45,970.42l-9,.1,40.13-74.38,6-.07,41.67,73.46-9.92.11-11.56-20.73-46.18.51Zm14.82-28.16,38.43-.43-19.61-35.16Z"/><path class="cls-2" d="M603.06,893.75l10.06-3.22,54.93,50.17L683.66,868l9.58-3.06,22.52,70.42-8,2.55-19-59.51-15.15,70.44-5.82,1.86L614.51,902l19.07,59.63-8,2.55Z"/><path class="cls-2" d="M760.09,911.22l-42.65-60.37,41-29c13-9.18,26.74-11.11,35.63,1.47s2.37,25-10.52,34.07L749.4,881.54,767,906.38Zm-31.76-59.5,17,24.11,34.81-24.6c7.69-5.43,13.29-13.6,6.68-23s-16-6.59-23.72-1.16Z"/><path class="cls-2" d="M853.07,748.86c-9.84-.55-20.28,2.5-33.33,18.79C809.08,781,804,793.54,812,799.91c6.55,5.25,14.23-.66,31-18.07,15.16-16.06,29.12-31.45,43.52-19.91s4.92,31.5-7.18,46.59c-16.72,20.85-32.42,25.39-44.36,23.81l2.15-7.57c10.71.27,22.58-2.94,36.83-20.71,11.3-14.1,16.7-27.55,7.66-34.79-8.54-6.85-17.74,1.59-33.66,18.19-14.86,15.48-28,30.06-41,19.63s-4.06-29.52,7.64-44.11c16.24-20.25,30-23.22,40.5-21.84Z"/></svg>