<svg id="Layer_1" data-name="Layer 1" xmlns="http://www.w3.org/2000/svg" viewBox="0 0 1082 1081"><defs><style>.cls-1{fill:#e698c0;stroke:#1b1a16;stroke-miterlimit:10;stroke-width:5.17px;}.cls-2{fill:#353532;}</style></defs><circle class="cls-1" cx="541" cy="540.5" r="536.26"/><path class="cls-2" d="M151.17,379.83l3.45-6.51,79-25.95-51-27,3.61-6.82,60.08,31.81-3.45,6.51L164,377.78l50.87,26.94-3.67,6.92Z"/><path class="cls-2" d="M261.85,325.4,212,279.14l42.75-46,4.72,4.38L222,277.86l17.15,15.92,23.48-25.29,4.89,4.54L244,298.32l18.26,17,40.52-43.64,4.8,4.46Z"/><path class="cls-2" d="M294.4,242c-10.71-16.77-7-38.57,18.62-54.95s47.08-10.64,57.79,6.12,6.81,38.69-18.72,55S305.18,258.85,294.4,242Zm69.5-44.42c-9.07-14.2-26.55-18.3-47.35-5s-24.42,30.88-15.34,45.08,26.65,18.24,47.35,5S373,211.77,363.9,197.58Z"/><path class="cls-2" d="M387.06,150.1l7.08-2.06,73.64,38.64-16.12-55.39,7.41-2.15,19,65.27L471,196.47l-73.5-38.57,16.09,55.28-7.52,2.19Z"/><path class="cls-2" d="M541.47,154.21c2.35-19.75,19-34.26,49.25-30.66s43.14,21.62,40.79,41.37c-1.85,15.57-12.6,27.72-31.55,30.54.44,6.18,2.93,12,12,13.09,5.34.63,12.21-.67,17-5.29l-.88,7.44c-4.72,4-11.45,5.12-17.26,4.43-14.64-1.74-17.75-10.24-18.47-19a70.93,70.93,0,0,1-10.19-.5C551.94,192,539.11,174.08,541.47,154.21Zm58.35,34.51c14-2.92,22.08-12.33,23.56-24.76,2-16.73-8.92-31-33.43-33.91s-38.47,8.39-40.46,25.11c-1.59,13.37,5.32,25.62,21,31.37l0-.11A10.67,10.67,0,0,1,567,176.8c.83-7,6.63-12.17,16.74-11C598.44,167.59,599.79,180,599.82,188.72Zm-7.78,1c-.33-9.11-1.3-16.77-9.32-17.72-5.46-.65-8.89,2.48-9.46,7.24-1,8.71,9.07,9.92,12,10.26A41.34,41.34,0,0,0,592,189.68Z"/><path class="cls-2" d="M654.06,179.44l16-38,7.11,3-16,38c-6.77,16.07,2.49,25.43,18.66,32.24s29.34,6.9,36.11-9.16l16-37.95,7.11,3-16,37.95c-9.54,22.64-29.38,19.1-45.77,12.2S644.52,202.08,654.06,179.44Z"/><path class="cls-2" d="M732.72,246.06l41.42-53.9L824,230.44,820,235.55,776.35,202l-14.26,18.55,27.37,21-4.07,5.29-27.37-21-15.18,19.76,47.22,36.29-4,5.19Z"/><path class="cls-2" d="M796.57,298.78,849.39,256l39.55,48.82-5,4.05L849.25,266l-18.18,14.74,21.73,26.81-5.18,4.2L825.88,285l-19.36,15.68L844,346.93l-5.09,4.12Z"/><path class="cls-2" d="M908.91,336.06l3.05,6.71-27.75,78.4,52.52-23.85,3.2,7L878,432.46l-3-6.71,27.69-78.24-52.41,23.8L847,364.17Z"/><path class="cls-2" d="M186.15,533.26l.55,7.35-53.07,64,57.52-4.28.57,7.7-67.79,5.05-.54-7.35,53-63.9L119,546.13l-.58-7.82Z"/><path class="cls-2" d="M163,638.81c18.59-7.07,39.19,1,50,29.43s.83,48.25-17.77,55.32-39.26-1.21-50-29.54S144.33,645.92,163,638.81Zm29.32,77.1c15.75-6,23.33-22.27,14.55-45.34s-25.25-30.21-41-24.22-23.29,22.38-14.55,45.34S176.6,721.9,192.35,715.91Z"/><path class="cls-2" d="M237.17,727.51l4.45,5.87L231.91,816l45.94-34.88,4.67,6.15-54.15,41.11-4.45-5.87,9.69-82.43-45.85,34.81L183,768.61Z"/><path class="cls-2" d="M284.36,820.87l28,23.58-4.82,5.73-28-23.58Z"/><path class="cls-2" d="M395.29,885.5c-1.23-9-5.81-17.86-22.79-26.79-13.87-7.31-26.12-9.65-30.48-1.37-3.6,6.83,3.08,12.73,21.73,24.79,17.15,10.87,33.48,20.79,25.58,35.8s-27.58,10-43.32,1.67c-21.74-11.45-28.58-24.83-29.24-35.88l7.21.62c1.63,9.71,6.6,19.86,25.13,29.62,14.71,7.73,27.79,10.25,32.75.83,4.68-8.9-4.54-15.74-22.31-27.2-16.58-10.71-32-20-24.89-33.6s25.93-8.83,41.15-.82c21.12,11.12,26.21,23.05,26.79,32.74Z"/><path class="cls-2" d="M434.19,951.06l15-59.69-32.11-8.06,1.56-6.24,71.61,18-1.57,6.24-31.88-8-15,59.7Z"/><path class="cls-2" d="M496.12,930.75c0-19.89,14.84-36.28,45.26-36.31s45.41,16.35,45.42,36.24S571.73,967,541.43,967,496.14,950.75,496.12,930.75Zm82.49-.06c0-16.85-12.54-29.71-37.23-29.69s-37.2,12.89-37.18,29.74,12.65,29.71,37.22,29.69S578.62,947.54,578.61,930.69Z"/><path class="cls-2" d="M623.92,957.78l-18.51-65.41,44.46-12.59c14.08-4,26.59-1.45,30.45,12.18s-5.59,22.37-19.55,26.32l-37,10.49,7.61,26.9Zm-9.33-61.32L622,922.58,659.7,911.9c8.33-2.36,15.68-7.73,12.82-17.86s-11.89-10.62-20.22-8.26Z"/><path class="cls-2" d="M830,852.31l-5.3,4.06-7.9-10.31-.18.14c.27,10.55-4.06,22.41-18.73,33.65-21,16.08-43.73,15.07-57.1-2.39-13.09-17.09-8.73-38.71,14.77-56.71,19.51-14.94,33.54-13.75,39.38-12.48L792.44,815c-8.14-.25-18-.54-33.65,11.48-18,13.8-22.7,31.55-11.46,46.22s29.87,14.55,47,1.46c15.88-12.16,21.38-28.46,12.33-41.43l-.07-.09L783,850.75l-4-5.2,28.89-22.13Z"/><path class="cls-2" d="M802.2,782l4.79-6,48.19,38.1,32.29-40.84,5.14,4.06-37.09,46.9Z"/><path class="cls-2" d="M874.15,745.06c-18.12-8.2-26.91-28.49-14.37-56.21s33.64-34.6,51.76-26.39,26.82,28.7,14.32,56.31S892.38,753.31,874.15,745.06Zm34-75.14c-15.34-6.95-32.23-.85-42.41,21.64s-3.62,39.2,11.73,46.14,32.28.75,42.41-21.64S923.51,676.86,908.16,669.92Z"/><path class="cls-2" d="M883.89,642.63l1-8.48,59-16.59L890.46,589l.62-5.11,58.62-14.75-53.07-30.54,1-7.9,63.9,37.41-.61,5L902,588.15l53.55,28.59-.63,5.11Z"/></svg>