<svg id="Layer_1" data-name="Layer 1" xmlns="http://www.w3.org/2000/svg" viewBox="0 0 1082 1081"><defs><style>.cls-1{fill:#e698c0;stroke:#1b1a16;stroke-miterlimit:10;stroke-width:5.17px;}.cls-2{fill:#353532;}</style></defs><circle class="cls-1" cx="540.59" cy="540.47" r="536.26"/><path class="cls-2" d="M134.58,413l2.93-7,78.87-34.3-55.09-22.91,3.07-7.37,64.91,27-2.92,7L147.64,409.6l55,22.86L199.49,440Z"/><path class="cls-2" d="M243.38,346.51,188,303.2,228,252l5.25,4.1L198.17,301l19.06,14.9,22-28.11,5.43,4.25-22,28.11L243,336l37.94-48.51,5.34,4.18Z"/><path class="cls-2" d="M269.76,257.65c-12.37-16.43-10.28-39.21,14.86-58.13s47.7-14.69,60.07,1.75,10.08,39.36-15,58.2S282.2,274.19,269.76,257.65Zm68.16-51.29c-10.47-13.92-28.82-16.77-49.22-1.42S266,238.71,276.43,252.63s28.92,16.71,49.23,1.43S348.4,220.29,337.92,206.36Z"/><path class="cls-2" d="M358.55,155.56l7.16-2.61,78.66,34.77-20.47-56,7.5-2.74,24.12,66-7.16,2.62-78.5-34.7,20.43,55.91-7.62,2.78Z"/><path class="cls-2" d="M524.49,116.11l8,.18L531,179.8l53.83,1.25-.16,6.77-61.81-1.43Z"/><path class="cls-2" d="M600.58,192l12.71-69.14,7.85,1.45-12.71,69.13Z"/><path class="cls-2" d="M711.65,228l-6.41-2.55,5-12.48-.23-.09c-9.22,5.84-22.05,8.3-39.81,1.23-25.41-10.1-36.58-30.81-28.18-52,8.23-20.69,29.74-28.29,58.18-17,23.62,9.39,30,22.47,32,28.33l-7.32,1.39c-4.11-7.36-9.05-16.23-28.05-23.78-21.81-8.67-40-3.42-47.11,14.35s2.93,34.23,23.62,42.46c19.23,7.64,36.61,3.87,43.32-11l0-.11-28.56-11.35,2.5-6.3,35,13.9Z"/><path class="cls-2" d="M728.9,238.79l43.64-55.12,6.26,5-19.08,24.09,48.19,38.15L827,226.78l6.35,5-43.63,55.12-6.36-5,20.35-25.7L755.51,218l-20.35,25.71Z"/><path class="cls-2" d="M820.31,324.68l50.84-38.29L850.54,259l5.32-4,45.94,61-5.31,4L876,292.86l-50.84,38.3Z"/><path class="cls-2" d="M926.93,412.38c4.93-8,7.13-18.07-.53-36.38-6.25-15-14.48-24.89-23.41-21.16-7.36,3.08-5.92,12.18,1,34.07,6.51,20,13,38.63-3.18,45.4s-28.54-10.23-35.64-27.19c-9.8-23.45-6.44-38.62.31-47.87l5.34,5.24c-5.1,8.82-7.82,20.19.54,40.17,6.63,15.85,15.4,26.48,25.56,22.23,9.6-4,6.74-15.54.13-36.38-6.17-19.46-12.36-37.07,2.27-43.18s26.49,10,33.35,26.44c9.53,22.77,5.73,35.64-.19,43.75Z"/><path class="cls-2" d="M154.37,709.07c-3.76-2-6.24-6.09-7.39-9.92-2.21-7.42.46-17.06,6-29.06-12.8-8.17-20.81-17.65-24.69-30.63-4.09-13.68-2.37-27.33,12.13-31.66,15.3-4.58,24.21,7.91,33.76,19.58,5.47-9.6,10.24-13.93,16-15.66C201,608.5,209.4,616.45,212.24,626c2.91,9.74.11,21.06-10.9,24.35-10,3-17.56-3-24.7-10.8-3.79,7.2-10.61,21.11-14,28.2a93.83,93.83,0,0,0,32.66,9.56l2.53,8.46c-12.58-1.54-25.42-4.77-38.22-11.68-4.83,10-7.19,16.93-5.14,23.76,1.07,3.6,3.05,6.42,6.67,9.25Zm1.64-45.2c4.67-9.73,8.31-17.39,15.08-30.66-8.49-10.21-16.69-20.77-27.71-17.47-9.16,2.74-11.52,12.16-8.43,22.47C137.76,647.6,144.75,656.63,156,663.87Zm23.75-30c6.22,6.85,11.87,11,18.82,8.89,5.45-1.63,9.93-6.5,7.4-15-2.67-8.92-9.58-9.64-14-8.32C186.9,621,183.89,626.61,179.76,633.91Z"/><path class="cls-2" d="M262.72,839.61c-7.61-.3-24.31-1.87-40.68-20.83-18.66-21.61-18.68-44.78-1.64-59.48s39.7-11.42,59.07,11c16.37,19,15.26,35.27,15,40.48l-7.35-1.48c-.71-9.15-.64-20.55-12.82-34.66-15.57-18-33.93-21.53-48.41-9s-13.69,31.16,1.81,49.12c12.17,14.1,25.16,16,34.74,17.47Z"/><path class="cls-2" d="M277,868.1l43.5-55.22,6.27,4.94L283.29,873Z"/><path class="cls-2" d="M389.89,935.37l-6.15-3.11,6.05-12-.21-.1c-9.71,5-22.7,6.29-39.77-2.33-24.41-12.33-33.68-34-23.43-54.26,10-19.88,32.14-25.53,59.47-11.72,22.68,11.45,27.87,25.06,29.31,31.07l-7.42.73c-3.43-7.7-7.56-17-25.81-26.19-20.95-10.59-39.58-7-48.2,10.08s-.14,34.37,19.73,44.41c18.47,9.32,36.12,7.12,44.13-7.13l.06-.11-27.44-13.86,3.06-6,33.59,17Z"/><path class="cls-2" d="M420.84,944.83l-8.41-1.77L465,882.29l5.57,1.17,23.52,76.79-9.23-1.94-6.45-21.64-43-9Zm19.58-23.09,35.75,7.53-10.95-36.68Z"/><path class="cls-2" d="M600.16,958.73a26,26,0,0,1-9.61,2c-27.21.93-15.65-33-39.72-32.19l-22.73.78,1.08,31.92-8,.27-2.39-70.26,47.77-1.62c15.12-.51,27,4.65,27.49,18.07.47,13.67-11.2,19.51-26.19,20l-1.82.06v.25c12.69,6.59,10.69,25.91,25.68,25.4a31.64,31.64,0,0,0,8.18-1.61ZM527,897.65l.85,25,40.51-1.37c9-.31,17.68-3.51,17.35-13.3s-9.25-12-18.2-11.73Z"/><path class="cls-2" d="M636.56,950.67,615.7,883.54l62-19.28,2,6.35L625.3,887.53l7.18,23.1L666.57,900l2,6.59-34.09,10.59,7.65,24.61L701,923.56l2,6.47Z"/><path class="cls-2" d="M753.51,902.72,720.7,848.19l-29.34,17.65-3.43-5.7,65.42-39.36,3.43,5.7L727.64,844l32.82,54.53Z"/><path class="cls-2" d="M830.93,844.11l-44.42-45.59L762,822.43l-4.65-4.77L812,764.37l4.65,4.76-24.35,23.74,44.42,45.58Z"/><path class="cls-2" d="M880.61,789.07l-59.53-37.4,34.57-55,5.63,3.54L831,748.45l20.5,12.87,19-30.22,5.84,3.67-19,30.22,21.83,13.71,32.76-52.14,5.74,3.6Z"/><path class="cls-2" d="M901.23,618.77c-8.89,3-17.06,9.29-22.92,28.25-4.79,15.49-4.86,28.39,4.39,31.25,7.63,2.36,12.36-5.55,21.08-26.79,7.81-19.5,14.79-38,31.55-32.8s15.35,26.15,9.91,43.72c-7.51,24.28-19.82,33.77-30.94,36.54l-.73-7.45c9.57-3.49,18.95-10.47,25.35-31.17,5.08-16.41,5.16-30.19-5.36-33.45-9.94-3.07-15.14,7.6-23.43,27.84-7.74,18.88-14.29,36.37-29.44,31.68s-13.89-24.69-8.63-41.68c7.29-23.59,18.46-31,28.21-33.46Z"/></svg>