<svg id="Layer_1" data-name="Layer 1" xmlns="http://www.w3.org/2000/svg" viewBox="0 0 1082 1081"><defs><style>.cls-1{fill:#f79b83;stroke:#1b1a16;stroke-miterlimit:10;stroke-width:5.17px;}.cls-2{fill:#353532;}</style></defs><circle class="cls-1" cx="540.59" cy="540.47" r="536.26"/><path class="cls-2" d="M171.66,491.74c5.86,5.47,18.07,18.2,18.08,44.53,0,30-15.9,48.48-39.57,48.49s-39.45-18.19-39.45-49.37c0-26.34,12.08-38.55,15.9-42.5l4.84,6.24c-5.73,7.76-13.62,16.79-13.61,36.39,0,25.07,12.22,40.46,32.32,40.46s32.32-15.4,32.31-40.34c0-19.6-9-30-15.65-37.79Z"/><path class="cls-2" d="M190.28,481.62l-2.37,8.71-60.63-58.89,1.57-5.78,82.05-20.07-2.6,9.58-23.11,5.47L173.1,465.22Zm-23.06-21.95,10.06-37.09-39.17,9.29Z"/><path class="cls-2" d="M153.45,354.78l4.13-6.88,87.31-23.57L191.1,292l4.32-7.2,63.39,38.05-4.13,6.87-87.13,23.53,53.67,32.22-4.39,7.31Z"/><path class="cls-2" d="M310.14,272.09l-47.48-56.67,6.43-5.39,47.49,56.67Z"/><path class="cls-2" d="M396.23,217.58l-26.58-61.42-33,14.3L333.82,164l73.69-31.89,2.78,6.42-32.82,14.2,26.58,61.43Z"/><path class="cls-2" d="M439,199.92l-8.87,1.72,26.11-80.38,5.87-1.14,54.21,64.77-9.75,1.9-15.09-18.33-45.35,8.82Zm9.52-30.37,37.72-7.33-25.61-31.06Z"/><path class="cls-2" d="M530.56,185.06,536,111.33l8.37.62-2.85,38.45,63.51-33.94,13.83,1L560.36,148.1l56,43.33-15-1.11-49-38.09-11.42,6-2,27.41Z"/><path class="cls-2" d="M628,196.37l24.71-69.68,64.4,22.83-2.34,6.6-56.49-20-8.5,24,35.38,12.54-2.43,6.83L647.4,166.91l-9.06,25.55,61,21.64L697,220.81Z"/><path class="cls-2" d="M785.93,247.19l-1.51-60.62,8.6,7.37,1,51,50.65-6.7,7.92,6.79-60.23,7.71-18.8,21.93-6.47-5.55Z"/><path class="cls-2" d="M836.62,281.2c18-12.06,41.76-8.58,60.2,18.89s12.74,50.92-5.22,63-41.89,8.36-60.27-19S818.56,293.33,836.62,281.2Zm50,74.47c15.21-10.21,19.24-29.32,4.27-51.61s-34.18-25.79-49.39-15.57-19.17,29.43-4.27,51.61S871.43,365.89,886.64,355.67Z"/><path class="cls-2" d="M895.37,392.47l43-12.71,2.38,8.05-43,12.71c-18.18,5.38-19.67,19.62-14.25,37.92s14.41,29.44,32.59,24.06L959,449.79l2.39,8.06-42.95,12.7c-25.63,7.59-36.33-11.54-41.82-30.08S869.75,400.05,895.37,392.47Z"/><path class="cls-2" d="M893.5,587a27.68,27.68,0,0,1-1.74-10.19c.13-28.63,35.32-15.12,35.42-40.44l.11-23.92-33.6-.14,0-8.4,73.93.31-.22,50.26c-.06,15.91-6,28.23-20.09,28.17-14.38-.06-20.06-12.56-20-28.34v-1.91h-.25c-7.44,13.08-27.66,10.19-27.73,26a33.44,33.44,0,0,0,1.36,8.66Zm67.12-74.41-26.33-.11-.19,42.63c0,9.41,3,18.71,13.28,18.76s13-9.24,13.06-18.65Z"/><path class="cls-2" d="M244,788.66c14.68-15.89,38.64-18,62.94,4.43s24.18,46.58,9.5,62.47-38.82,17.84-63-4.52S229.21,804.64,244,788.66Zm65.9,60.86c12.43-13.46,11.92-33-7.8-51.19s-39.22-17.18-51.65-3.72-11.83,33.07,7.8,51.2S297.44,863,309.87,849.52Z"/><path class="cls-2" d="M403.49,940.22a27.36,27.36,0,0,1-10-2.68c-26-12.08,1-38.39-21.93-49.08L349.9,878.37l-14.18,30.45-7.61-3.55,31.19-67,45.57,21.21c14.42,6.72,23.14,17.23,17.18,30-6.07,13-19.79,13-34.09,6.3l-1.73-.8-.11.23c8.76,12.22-2.31,29.38,12,36a33.47,33.47,0,0,0,8.44,2.38ZM364,848.14,352.85,872l38.65,18c8.53,4,18.24,5.12,22.59-4.22s-2.94-15.69-11.48-19.66Z"/><path class="cls-2" d="M453.25,878,495,883.75c30.26,4.15,42,20.4,39.1,41.83C531.2,946.51,516,961.25,484.94,957l-41.73-5.72Zm7.37,8.07-8.12,59.25,33.41,4.58c23.57,3.23,37.12-7.5,39.52-25,2.43-17.77-8.08-31-31.4-34.22Z"/><path class="cls-2" d="M571.23,960.79l-10.91-73.12,67.58-10.08,1,6.92-59.27,8.84,3.76,25.17L610.54,913l1.07,7.18-37.12,5.54,4,26.8,64-9.56,1.05,7Z"/><path class="cls-2" d="M755.3,904.22a27.45,27.45,0,0,1-8.52,5.84c-26.06,11.86-28.51-25.75-51.55-15.26l-21.77,9.91,13.92,30.58-7.65,3.48L649.1,871.48l45.74-20.82c14.48-6.59,28.14-6.38,34,6.47,6,13.09-3,23.47-17.38,30l-1.73.8.1.23c15,1.28,20.82,20.86,35.18,14.32a33.39,33.39,0,0,0,7.3-4.86Zm-95.66-29.85,10.92,24,38.79-17.66c8.57-3.9,15.76-10.53,11.49-19.91s-13.83-8-22.4-4.06Z"/><path class="cls-2" d="M743.65,839c-10.41-12.2-18.2-27.8,8-50.18,27.1-23.13,43.11-21.24,52.61-10.1,8.5,10,9.15,25.81-15.7,45.51l10.91,12.78L793,842.58l-15.28-17.9c15.25-12.52,31.33-26.41,20-39.67-7.84-9.2-21-8-40.87,9-22.46,19.17-14.34,30.64-6.74,39.54ZM799,854.7,810.33,845,819,855.2l-11.32,9.66Z"/></svg>