<svg xmlns="http://www.w3.org/2000/svg" viewBox="0 0 1077.7 1077.7"><defs><style>.cls-1{fill:#9dd1a2;stroke:#1b1a16;stroke-miterlimit:10;stroke-width:5.17px;}.cls-2{fill:#353532;}</style></defs><g id="Layer_2" data-name="Layer 2"><g id="Layer_1-2" data-name="Layer 1"><circle class="cls-1" cx="538.85" cy="538.85" r="536.26"/><path class="cls-2" d="M287.53,285.81l-4.44,5.73-11.17-8.64-.16.2c3.22,11,2,24.69-10.33,40.59-17.6,22.75-41.78,28-60.7,13.37-18.52-14.32-19.94-38.27-.24-63.73,16.35-21.14,31.43-23.79,37.93-24.07l-.73,7.8c-8.63,2-19,4.42-32.19,21.43-15.1,19.53-15.1,39.48.8,51.78s35.46,7,49.78-11.52c13.32-17.21,14.56-35.87,1.45-47l-.11-.07-19.77,25.56L232,292.89l24.22-31.3Z"/><path class="cls-2" d="M277.08,244.64c-12.23-17.84-9-41.67,18.32-60.37s50.8-13.21,63,4.63,8.76,41.81-18.42,60.44S289.38,262.59,277.08,244.64Zm74-50.71c-10.36-15.11-29.5-19-51.65-3.78S274,224.56,284.32,239.68s29.61,18.89,51.65,3.79S361.43,209.05,351.08,193.93Z"/><path class="cls-2" d="M418.73,206.2,396.66,143l-34,11.87-2.3-6.6,75.79-26.48,2.31,6.61-33.75,11.79,22.07,63.18Z"/><path class="cls-2" d="M540.93,156.3l-39.78-45.77,11.33.2,33.28,38.66L580.55,112l10.43.19-41.53,44.3-.52,28.88-8.52-.15Z"/><path class="cls-2" d="M601.65,150.21c6.12-20.75,26.66-33.27,58.39-23.91s42.32,31.05,36.2,51.8-26.9,33.19-58.51,23.87S595.5,171.08,601.65,150.21Zm86.05,25.37c5.18-17.58-3.92-34.85-29.68-42.45s-42.77,2-47.95,19.56,4,34.89,29.68,42.45S682.52,193.15,687.7,175.58Z"/><path class="cls-2" d="M717.9,198.27l24.94-37.2,7,4.67L724.88,203c-10.56,15.75-2.61,27.66,13.24,38.29s29.9,13.45,40.45-2.3l24.94-37.21,7,4.68-24.94,37.2c-14.88,22.2-35.33,14.32-51.39,3.55S703,220.47,717.9,198.27Z"/><path class="cls-2" d="M840.47,349.27a27.55,27.55,0,0,1-7.83-6.75c-18.14-22.14,17.59-34.14,1.55-53.73L819,270.28l-26,21.29-5.32-6.5,57.19-46.84,31.85,38.88c10.08,12.3,13.37,25.56,2.44,34.51-11.12,9.11-23.45,3.09-33.45-9.11L844.54,301l-.19.16c2.59,14.82-14.83,25.47-4.83,37.67a33,33,0,0,0,6.56,5.81Zm4.35-100.11-20.38,16.69,27,33c6,7.29,14.22,12.54,22.19,6s4.15-15.4-1.81-22.69Z"/><path class="cls-2" d="M143.38,686.89l66.82-31.61,21.5,45.43c6.8,14.37,6.33,28.25-7.59,34.83s-25-2-31.75-16.22l-17.9-37.84-27.49,13Zm64.09-21-26.68,12.62L199,717c4,8.52,11.11,15.44,21.46,10.54s9.25-14.65,5.23-23.16Z"/><path class="cls-2" d="M192.08,779.64l-5.76-6.95,83.07-15.62,3.82,4.61L242.33,840.3,236,832.66l8.85-22-29.47-35.57Zm31.22-6.2L247.82,803l15-37.37Z"/><path class="cls-2" d="M354.39,855.56c-.05-9.85-3.71-20.08-20.75-32.14-13.92-9.85-26.79-14.13-32.67-5.82-4.85,6.85,1.51,14.16,19.89,29.82,16.94,14.18,33.14,27.2,22.48,42.26s-31.16,6.79-46.94-4.38c-21.82-15.44-27.28-30.85-26.42-42.86l7.69,1.69c.37,10.71,4.28,22.37,22.87,35.53,14.75,10.44,28.5,15,35.19,5.57,6.32-8.93-2.65-17.62-20.17-32.52-16.35-13.91-31.68-26.16-22.05-39.77s29.22-5.82,44.49,5c21.19,15,25,28.59,24.22,39.12Z"/><path class="cls-2" d="M452.89,895.12c-2.85-9.43-9.28-18.19-29.05-24.89-16.14-5.48-29.7-5.91-33,3.73-2.7,7.95,5.49,13.15,27.57,22.92,20.27,8.75,39.5,16.62,33.58,34.09s-27.92,15.39-46.24,9.18c-25.31-8.58-34.94-21.79-37.53-33.55l7.85-.57c3.41,10.16,10.48,20.22,32,27.53,17.11,5.8,31.59,6.28,35.31-4.69,3.51-10.36-7.56-16.13-28.6-25.41-19.63-8.67-37.82-16.05-32.47-31.84s26.35-13.9,44.06-7.9c24.59,8.34,32.09,20.29,34.37,30.6Z"/><path class="cls-2" d="M486.2,957.36l3-73.86,50.22,2c15.9.64,28,7.49,27.35,22.87s-13.33,21.24-29.1,20.61l-41.83-1.69-1.22,30.39Zm11.08-66.53-1.18,29.49L538.69,922c9.41.37,18.83-2.69,19.29-14.13s-8.7-15-18.11-15.37Z"/><path class="cls-2" d="M589.48,921.76C583.94,900.85,595,879.49,627,871s52.29,4.57,57.83,25.48-5.76,42.34-37.62,50.78S595.05,942.79,589.48,921.76Zm86.71-23C671.5,881.06,654.75,871,628.8,877.9S593.27,901.8,598,919.51s21.57,27.72,47.4,20.87S680.88,916.49,676.19,898.77Z"/><path class="cls-2" d="M803,868.59a27.34,27.34,0,0,1-7.62,7c-24.13,15.41-31.84-21.49-53.18-7.87L722,880.57l18.08,28.32L733,913.41l-39.78-62.32,42.37-27c13.41-8.56,27-10.27,34.56,1.64,7.74,12.12.31,23.65-13,32.14l-1.61,1,.13.22c15-.84,23.55,17.73,36.85,9.23a33,33,0,0,0,6.54-5.83Zm-98.91-16.12,14.18,22.21,35.93-22.94c7.94-5.07,14.12-12.64,8.58-21.33S748,824.47,740,829.54Z"/><path class="cls-2" d="M846.81,824.67l-49.53-45L773.06,806.3l-5.18-4.71,54-59.42,5.18,4.71L803,773.34l49.53,45Z"/><path class="cls-2" d="M838.73,740c-14.21-7.42-27.26-19-11.3-49.54,16.5-31.58,32.06-35.8,45-29,11.62,6.07,18.14,20.52,2.45,48.08l14.89,7.77-3.95,7.56L865,714c9.47-17.3,19.19-36.2,3.74-44.27-10.71-5.6-22.49.46-34.56,23.58-13.67,26.16-1.85,33.77,8.52,39.19Zm57.2-6.15,6.89-13.2,11.84,6.19-6.89,13.19Z"/></g></g></svg>