<svg xmlns="http://www.w3.org/2000/svg" viewBox="0 0 1082 1081"><defs><style>.a{fill:#e698c0;stroke:#1b1a16;stroke-miterlimit:10;stroke-width:5.17px;}.b{font-size:121px;fill:#353532;font-family:WeddingGothicATF-Book, Wedding Gothic ATF;}</style></defs><circle class="a" cx="540.29" cy="539.82" r="536.26"/><text class="b" transform="matrix(0.46, -0.89, 0.89, 0.46, 204.24, 419.94)">p</text><text class="b" transform="matrix(0.66, -0.75, 0.75, 0.66, 247.28, 337.68)">l</text><text class="b" transform="matrix(0.82, -0.58, 0.58, 0.82, 297.4, 278.54)">a</text><text class="b" transform="translate(366.95 226.88) rotate(-20.36)">n</text><text class="b" transform="translate(463.97 191.84) rotate(-5.44)">t</text><text class="b" transform="matrix(0.99, 0.11, -0.11, 0.99, 534.99, 183.37)">a</text><text class="b" transform="translate(621.81 195.3) rotate(16.4)">i</text><text class="b" transform="translate(657.63 202.02) rotate(27.83)">n</text><text class="b" transform="translate(748.13 253.01) rotate(39.71)"> </text><text class="b" transform="translate(781.56 280.62) rotate(46.76)"> </text><text class="b" transform="translate(812.58 309.64) rotate(57.62)">p</text><text class="b" transform="translate(861.95 388.3) rotate(71.41)">l</text><text class="b" transform="translate(887.59 461.5) rotate(84.74)">a</text><text class="b" transform="translate(897.19 547.48) rotate(99.96)">n</text><text class="b" transform="translate(878.48 648.97) rotate(114.77)">t</text><text class="b" transform="matrix(-0.6, 0.8, -0.8, -0.6, 850.11, 714.6)">a</text><text class="b" transform="translate(796.01 783.49) rotate(136.8)">i</text><text class="b" transform="translate(772.02 810.95) rotate(148.11)">n</text><text class="b" transform="translate(682.36 863.42) rotate(159.94)"> </text><text class="b" transform="matrix(-0.97, 0.22, -0.22, -0.97, 641.67, 878.4)"> </text><text class="b" transform="translate(601.03 890.61) rotate(178.02)">p</text><text class="b" transform="matrix(-0.98, -0.2, 0.2, -0.98, 508.15, 893.35)">l</text><text class="b" transform="translate(431.99 878.57) rotate(-155.06)">a</text><text class="b" transform="translate(352.86 843.67) rotate(-139.69)">n</text><text class="b" transform="translate(274.82 776.23) rotate(-124.92)">t</text><text class="b" transform="translate(232.44 718.55) rotate(-112.96)">a</text><text class="b" transform="translate(200.17 637.13) rotate(-102.94)">i</text><text class="b" transform="translate(188.49 602.63) rotate(-91.49)">n</text></svg>