<svg xmlns="http://www.w3.org/2000/svg" viewBox="0 0 1082 1081"><defs><style>.a{fill:#e698c0;stroke:#1b1a16;stroke-miterlimit:10;stroke-width:5.17px;}.b{fill:#353532;}</style></defs><circle class="a" cx="540.29" cy="539.82" r="536.26"/><path class="b" d="M211.13,406.62l-62.44-32.3,21.95-42.45c7-13.44,17.71-21.08,30.72-14.36s12.93,20,6,33.37l-18.29,35.36,25.69,13.28Zm-52.86-36.33,24.93,12.89,18.62-36c4.11-8,5.27-17.3-4.4-22.31s-16.42,1.46-20.53,9.41Z"/><path class="b" d="M204.24,280.1l5.26-6,47.82,41.82,35.45-40.53,5.1,4.46-40.71,46.54Z"/><path class="b" d="M307.28,271.55l-7,5-8.82-79.89,4.65-3.29,72.32,34.95-7.71,5.45-20.25-10L304.6,249.13Zm-3.63-30.05,29.83-21.11-34.35-16.9Z"/><path class="b" d="M356.55,155.75l7.15-2.65,78.84,34.36-20.76-55.92,7.49-2.78,24.46,65.91-7.15,2.65L367.9,163l20.72,55.81-7.6,2.82Z"/><path class="b" d="M502.4,188.19l-6-63.36-34.09,3.24-.63-6.62,76-7.24.63,6.63-33.85,3.22,6,63.36Z"/><path class="b" d="M547,184.74l-8.53-1,46.67-65.43,5.65.64,30.62,74.25-9.37-1.07-8.45-20.94-43.64-5Zm17.32-24.81,36.31,4.14-14.35-35.49Z"/><path class="b" d="M636.2,199.53l19.85-67.44,7.66,2.26-19.85,67.44Z"/><path class="b" d="M703.72,146.85l6.74,3.56,26.94,81.67,27.85-52.75,7.06,3.73-32.82,62.17-6.74-3.56-26.89-81.51-27.79,52.65L670.9,209Z"/><path class="b" d="M820.61,322.31,880,284.67,905.58,325c8.1,12.78,9.27,25.93-3.09,33.77s-23.83,1.06-31.86-11.61l-21.32-33.62-24.42,15.49Zm58-27.33-23.71,15,21.71,34.23c4.79,7.56,12.28,13.27,21.48,7.44s7-14.91,2.23-22.47Z"/><path class="b" d="M933.36,380.11l2.54,7.57-60.2,20.25,17.16,51-6.42,2.16-19.71-58.61Z"/><path class="b" d="M888.7,473.55l-.79-8.55,73.58,32.34L962,503l-66.44,45.13-.86-9.4,18.77-12.54-4-43.74Zm27.83,11.89,3.35,36.39,31.82-21.28Z"/><path class="b" d="M963.84,574.41l-1.32,7.51-69.47,50.71L951.81,643l-1.38,7.86-69.25-12.15,1.32-7.51,69.33-50.61-58.64-10.3,1.4-8Z"/><path class="b" d="M862.31,684l57.79,26.67,14.35-31.1,6,2.79-32,69.33-6-2.79,14.25-30.87-57.8-26.67Z"/><path class="b" d="M842.86,724.29l5.15-6.88L881,790.73l-3.41,4.56-79.56-11,5.66-7.56L826,780,852.3,744.8Zm12.69,27.48L833.65,781l37.88,5.53Z"/><path class="b" d="M785.07,793.76,833.19,845l-5.82,5.47-48.12-51.25Z"/><path class="b" d="M796.42,878.56l-6.47,4-84.11-17.92,31.51,50.65-6.78,4.22-37.14-59.69,6.48-4,83.94,17.88L752.4,823.16l6.88-4.29Z"/><path class="b" d="M586,891.12l2.42,70.26L540.69,963c-15.12.52-27.06-5.12-27.56-19.75s11.14-21.09,26.13-21.61l39.79-1.37-1-28.9ZM580.25,955l-1-28.06-40.51,1.4c-8.95.31-17.67,3.88-17.29,14.76s9.31,13.6,18.25,13.29Z"/><path class="b" d="M479.19,959.14l-7.82-1.62,12.9-62.21-52.73-10.92,1.38-6.64,60.54,12.55Z"/><path class="b" d="M421,873.47l7.79,3.62-65,47.32-5.16-2.4-5.58-80.13,8.56,4,1.4,22.54,39.83,18.52Zm-24.28,18.07-33.14-15.41,2.39,38.2Z"/><path class="b" d="M295.94,887.57l-5.82-4.93-8.65-85.57-38.59,45.49-6.09-5.16,45.48-53.61,5.81,4.93,8.64,85.4,38.51-45.4,6.19,5.24Z"/><path class="b" d="M252.73,744.58,200.54,781l19.6,28.08-5.45,3.81L171,750.3l5.45-3.81,19.47,27.88,52.18-36.44Z"/><path class="b" d="M227.72,707.41l3.35,7.91-79.92-8.46-2.22-5.23,49.58-63.18,3.68,8.69-14.07,17.65,17.13,40.45Zm-30.12-2.87-14.25-33.65L159.5,700.83Z"/><path class="b" d="M196.81,622.5l-68.52,15.75-1.79-7.78L195,614.72Z"/><path class="b" d="M117.82,589.46l-.2-7.62,58-63.49L116,519.91l-.2-8,70.27-1.83.2,7.62-57.9,63.36,59.51-1.54.21,8.1Z"/></svg>