<svg id="Layer_1" data-name="Layer 1" xmlns="http://www.w3.org/2000/svg" viewBox="0 0 1082 1081"><defs><style>.cls-1{fill:#80bfc2;stroke:#1b1a16;stroke-miterlimit:10;stroke-width:5.17px;}.cls-2{fill:#353532;}</style></defs><circle class="cls-1" cx="540.59" cy="540.47" r="536.26"/><path class="cls-2" d="M289,289.46l-47-57.09,38.81-31.94c12.28-10.1,25.86-13,35.64-1.14s4.2,24.72-8,34.75l-32.32,26.6,19.32,23.48Zm-36-57,18.76,22.79,32.92-27.08c7.27-6,12.26-14.54,5-23.38s-16.47-5.4-23.74.58Z"/><path class="cls-2" d="M334.92,164.58l7.6-3.55,28.27,60.53,51.3-24,3,6.46-58.92,27.51Z"/><path class="cls-2" d="M440.15,200l-14.51-72.5,67-13.41,1.37,6.86-58.77,11.77,5,24.95,36.81-7.37,1.42,7.11-36.8,7.37L447,191.32,510.5,178.6l1.4,7Z"/><path class="cls-2" d="M525.56,185.4l-9-.51,45.07-71.5,6,.34,36.61,76.1-9.9-.55L584.15,167.8,538,165.21Zm16.69-27.09,38.37,2.16-17.19-36.4Z"/><path class="cls-2" d="M697.75,161.6c-3-9.4-9.51-18.08-29.36-24.53-16.21-5.27-29.78-5.53-32.92,4.15-2.6,8,5.65,13.07,27.85,22.57,20.39,8.5,39.72,16.12,34,33.66s-27.73,15.75-46.12,9.77c-25.42-8.26-35.22-21.35-38-33.08l7.84-.66c3.54,10.11,10.74,20.08,32.4,27.12,17.18,5.59,31.67,5.88,35.25-5.13,3.39-10.41-7.76-16-28.92-25.06C640.09,162,621.81,154.84,627,139s26.17-14.24,44-8.46c24.69,8,32.34,19.88,34.75,30.16Z"/><path class="cls-2" d="M707.81,227.49l40.6-61.79,57.11,37.52-3.84,5.85-50.1-32.91-14,21.27L769,218l-4,6.07-31.37-20.62-14.89,22.66,54.14,35.56-3.92,6Z"/><path class="cls-2" d="M793.1,289.54c-9.44,9.81-24,13.06-32.38,5.39l3.44-3.58c4.84,3.42,15,2.95,22.32-4.66L780,280.43l9.26-9.63,11.37,10.94Z"/><path class="cls-2" d="M207.11,432.91l-1.85,10.39-70,25.17,57,47.74-1.76,9.9-72.78-12.94,1.47-8.27,61.51,10.94L125.5,469.57l1.07-6,67.92-24.37-61.64-11,1.47-8.27Z"/><path class="cls-2" d="M120,559.49l73.81-4.22.48,8.39-73.81,4.22Z"/><path class="cls-2" d="M195.3,664.47c6.3-7.57,10.07-17.77,4.77-38-4.33-16.49-11.44-28-21.28-25.46-8.13,2.13-7.95,11.82-3.94,35.63,3.87,21.74,7.91,42.13-9.94,46.81S136.68,668.68,131.77,650c-6.78-25.84-1.07-41.15,7.32-49.8l4.79,6.24c-6.6,8.44-11.09,19.88-5.31,41.91,4.59,17.48,12.17,29.82,23.37,26.88,10.59-2.78,9.3-15.2,5.45-37.87-3.58-21.16-7.45-40.4,8.68-44.63s26.12,14.32,30.87,32.41c6.59,25.1.75,37.95-6.6,45.54Z"/><path class="cls-2" d="M172.66,744.51l58.2-33-17.79-31.31,6.08-3.46,39.66,69.81L252.72,750l-17.65-31.09-58.2,33.06Z"/><path class="cls-2" d="M216.24,810.24l53.06-51.47,47.58,49-5,4.87-41.72-43-18.27,17.71,26.14,27-5.21,5-26.13-27L227.2,811.3l45.1,46.49-5.12,5Z"/><path class="cls-2" d="M369.44,926.88a27.48,27.48,0,0,1-9.71-3.54c-24.82-14.27,4.34-38.16-17.61-50.79l-20.74-11.93-16.75,29.12-7.28-4.19,36.86-64.08,43.57,25.06c13.79,7.93,21.57,19.16,14.53,31.4-7.17,12.47-20.84,11.21-34.51,3.35l-1.66-1-.12.22c7.68,12.94-4.84,29.08,8.84,37a33.46,33.46,0,0,0,8.2,3.1ZM338,831.72l-13.13,22.84,36.95,21.25c8.16,4.7,17.74,6.68,22.88-2.25S383.12,857.67,375,853Z"/><path class="cls-2" d="M460.54,954.63l7.87-73.51,50,5.35c15.81,1.69,27.41,9.33,25.77,24.64s-14.72,20.31-30.41,18.63l-41.63-4.46-3.23,30.24ZM476,889l-3.14,29.35,42.39,4.54c9.36,1,19-1.42,20.18-12.81s-7.68-15.54-17-16.54Z"/><path class="cls-2" d="M566,926c-4.19-21.22,8.21-41.83,40.66-48.25s51.89,7.9,56.09,29.12S654.3,948.75,622,955.14,570.22,947.34,566,926Zm88-17.4c-3.55-18-19.63-29.07-46-23.86s-37,21.58-33.42,39.56,19.75,29,46,23.86S657.57,926.57,654,908.59Z"/><path class="cls-2" d="M744.67,844.62c-8.87-4.29-19.67-5.49-38,4.52-15,8.17-24.46,17.85-19.58,26.79,4,7.37,13.39,4.86,35.53-4.76,20.17-9,39-17.82,47.83-1.63s-7.59,31-24.56,40.24c-23.45,12.81-39.69,11-50.11,4.9l4.9-6.16c9.79,4.37,22,6,42-4.94,15.86-8.66,26-19,20.47-29.16-5.24-9.6-17-5.36-38.07,3.83-19.68,8.57-37.42,17-45.41,2.33s7.61-28.8,24-37.77c22.78-12.44,36.66-9.87,45.79-4.57Z"/><path class="cls-2" d="M827.85,847.18l-46.21-48.42-26,24.86-4.84-5.06,58.08-55.44,4.84,5.07L787.8,792.88,834,841.29Z"/><path class="cls-2" d="M819.2,751.47l5.17-9.21,74.38-.71-38.13-63.87,4.92-8.76L930,705.11l-4.11,7.32-54.48-30.59,36.91,61.88-3,5.32-72.15.65,54.59,30.64-4.11,7.33Z"/><path class="cls-2" d="M944.54,661.58l-1.89,8.83L878.9,614.92l1.25-5.85L961,584.55l-2.07,9.71L936.13,601l-9.64,45.17Zm-24.22-20.65,8-37.58-38.6,11.41Z"/><path class="cls-2" d="M889.2,554.22l-.62-8,57.5-69.81-62.55,4.86-.65-8.38,73.71-5.72.62,8-57.38,69.67L962.24,540l.66,8.49Z"/><path class="cls-2" d="M858.22,452.75,854.77,441l12.2-3.6,50.68-11.24,1.44,4.88-48.66,18.08Zm74.85-20.63-4.22-14.28,12.82-3.78,4.21,14.28Z"/></svg>