<svg id="Layer_1" data-name="Layer 1" xmlns="http://www.w3.org/2000/svg" viewBox="0 0 1082 1081"><defs><style>.cls-1{fill:#9dd1a2;stroke:#1b1a16;stroke-miterlimit:10;stroke-width:5.17px;}.cls-2{fill:#353532;}</style></defs><circle class="cls-1" cx="540.59" cy="540.47" r="536.26"/><path class="cls-2" d="M137.31,581.71c-6.31,6.5-10.5,15.57-7.09,34.46,2.79,15.42,8.48,26.52,17.69,24.86,7.6-1.37,8.13-10.27,6.16-32.38-2-20.21-4.23-39.19,12.47-42.2s24.81,15.61,28,33.11c4.37,24.17-2,37.8-10.27,45.13l-4-6.07c6.65-7.26,11.59-17.43,7.87-38-2.95-16.34-9-28.21-19.5-26.31-9.9,1.79-9.61,13.27-7.71,34.32,1.77,19.66,3.94,37.57-11.14,40.3s-22.92-15-26-31.92c-4.25-23.49,2-34.85,9.3-41.28Z"/><path class="cls-2" d="M178.21,464.15c4.92,5.48,15.08,18.12,13,42.25-2.43,27.5-18.48,43.12-40.16,41.21s-34.66-19.85-32.15-48.4c2.13-24.13,14.18-34.34,18-37.65l3.92,6.1c-5.87,6.65-13.82,14.29-15.4,32.24-2,23,7.92,38.05,26.34,39.67s30.84-11.5,32.85-34.34c1.58-18-5.85-28.24-11.28-35.88Z"/><path class="cls-2" d="M223.35,378.68a25.25,25.25,0,0,1-1.69,9.35c-9.08,24.71-35.27,2-43.3,23.85l-7.59,20.65,29,10.66-2.66,7.24L133.29,427l16-43.38c5-13.73,14-22.52,26.2-18,12.41,4.56,13.4,17.14,8.39,30.76l-.6,1.64.22.08c10.53-9,27.1-.13,32.1-13.75a30.46,30.46,0,0,0,1.54-7.91ZM142,422l22.73,8.36,13.52-36.79c3-8.13,3.3-17.11-5.59-20.39s-14.15,3.9-17.14,12Z"/><path class="cls-2" d="M209.68,349.14l-33.48-24,4.5-6.27,33.47,24c14.18,10.15,25.35,3.19,35.58-11.08s13.22-27.08-.95-37.24l-33.48-24,4.5-6.28,33.48,24c20,14.31,12.13,32.88,1.77,47.34S229.65,363.46,209.68,349.14Z"/><path class="cls-2" d="M249,233.94l36.4-29.22c14.14-11.36,25.32-11.63,31.91-3.42,4.84,6,4.59,14.32-1.48,21.14l.15.18c8.81-5.27,16.89-4.56,22.46,2.38,7.54,9.39,4.75,20.49-10,32.36L291.52,287Zm24.69,18.43,31.84-25.56c8.31-6.67,10.17-14.62,5.85-20-5-6.2-12.92-4.33-22,2.93L259,234.13Zm4.18,5.2L293.44,277l30.75-24.68c8.85-7.1,13.45-15,7.59-22.3s-15-3.72-22.1,2Z"/><path class="cls-2" d="M498.46,136.94c-6.5-6.32-15.58-10.5-34.46-7.07-15.42,2.79-26.52,8.49-24.85,17.7,1.38,7.6,10.27,8.13,32.38,6.14,20.21-2,39.19-4.25,42.21,12.44s-15.59,24.83-33.09,28c-24.17,4.38-37.81-2-45.14-10.25l6.06-4c7.27,6.65,17.44,11.58,38.05,7.85,16.35-3,28.21-9,26.31-19.52-1.8-9.9-13.28-9.6-34.33-7.69-19.66,1.78-37.57,4-40.31-11.12s15-22.93,31.91-26c23.49-4.26,34.85,2,41.28,9.28Z"/><path class="cls-2" d="M616,177.77c-5.48,4.92-18.11,15.09-42.24,13-27.5-2.41-43.13-18.46-41.23-40.13S552.4,116,581,118.44c24.13,2.11,34.35,14.17,37.65,18l-6.09,3.93c-6.65-5.87-14.3-13.82-32.24-15.39-23-2-38,8-39.66,26.36s11.51,30.84,34.36,32.84c17.95,1.57,28.23-5.87,35.87-11.31Z"/><path class="cls-2" d="M701.53,222.85a25.26,25.26,0,0,1-9.35-1.68c-24.71-9.07-2-35.27-23.88-43.29l-20.65-7.57-10.64,29-7.25-2.66,23.42-63.82,43.38,15.92c13.74,5,22.54,14,18.06,26.19-4.55,12.41-17.13,13.4-30.75,8.41l-1.65-.61-.08.22c9,10.52.16,27.1,13.78,32.1a30.44,30.44,0,0,0,7.91,1.53Zm-43.32-81.32-8.34,22.74,36.8,13.5c8.12,3,17.11,3.28,20.38-5.61S703.14,158,695,155Z"/><path class="cls-2" d="M731.07,209.17l24-33.49,6.28,4.5-24,33.49c-10.15,14.17-3.18,25.35,11.09,35.56s27.09,13.21,37.24-1l24-33.49,6.28,4.5-24,33.48c-14.3,20-32.87,12.16-47.33,1.81S716.77,229.15,731.07,209.17Z"/><path class="cls-2" d="M846.27,248.37l29.25,36.38c11.36,14.13,11.65,25.31,3.44,31.91-6,4.84-14.31,4.6-21.14-1.46l-.19.14c5.29,8.82,4.57,16.89-2.36,22.47-9.39,7.55-20.49,4.76-32.36-10L793.29,291Zm-23.61,28.89-19.42,15.61,24.7,30.73c7.11,8.85,15,13.45,22.31,7.58s3.71-15-2-22.1Zm5.2-4.18,25.58,31.82c6.67,8.3,14.63,10.16,20,5.84,6.2-5,4.31-12.93-2.94-22L846.1,258.42Z"/><path class="cls-2" d="M943.45,497.8c6.3-6.5,10.48-15.59,7-34.47-2.81-15.42-8.51-26.51-17.72-24.84-7.6,1.39-8.12,10.28-6.12,32.39,2,20.21,4.28,39.18-12.41,42.22s-24.84-15.57-28-33.07c-4.4-24.18,1.92-37.81,10.21-45.15l4,6.06c-6.64,7.27-11.57,17.45-7.82,38.05,3,16.35,9.06,28.2,19.53,26.3,9.9-1.81,9.6-13.29,7.67-34.34-1.79-19.66-4-37.57,11.09-40.32s22.95,15,26,31.9c4.27,23.48-2,34.85-9.26,41.28Z"/><path class="cls-2" d="M902.69,615.43c-4.93-5.47-15.11-18.1-13-42.23,2.39-27.51,18.42-43.14,40.1-41.26S964.47,551.75,962,580.3c-2.1,24.13-14.14,34.36-18,37.67l-3.93-6.1c5.86-6.65,13.8-14.3,15.36-32.25,2-23-8-38-26.38-39.64s-30.83,11.54-32.82,34.38c-1.56,17.95,5.89,28.23,11.33,35.86Z"/><path class="cls-2" d="M857.64,700.94a25.43,25.43,0,0,1,1.68-9.35c9.06-24.72,35.27-2,43.27-23.9L910.16,647l-29-10.63,2.66-7.25,63.83,23.38-15.9,43.39c-5,13.74-14,22.54-26.18,18.08-12.41-4.55-13.41-17.13-8.42-30.75l.6-1.65-.22-.08c-10.51,9-27.1.17-32.09,13.79a30.51,30.51,0,0,0-1.52,7.91Zm81.3-43.36-22.74-8.33-13.48,36.8c-3,8.13-3.28,17.12,5.62,20.37s14.14-3.91,17.12-12Z"/><path class="cls-2" d="M871.36,730.45l33.51,23.95-4.49,6.28-33.51-23.95c-14.18-10.13-25.35-3.16-35.56,11.12s-13.18,27.1,1,37.24L865.82,809l-4.49,6.28-33.51-23.94c-20-14.29-12.18-32.87-1.84-47.34S851.37,716.16,871.36,730.45Z"/><path class="cls-2" d="M832.22,845.71,795.85,875c-14.12,11.37-25.31,11.66-31.91,3.46-4.84-6-4.61-14.31,1.45-21.14l-.14-.19c-8.81,5.29-16.89,4.59-22.47-2.34-7.55-9.39-4.77-20.49,10-32.37l36.82-29.64Zm-28.91-23.59L787.68,802.7,757,827.43c-8.84,7.11-13.44,15-7.57,22.31s15,3.7,22.1-2Zm4.18,5.19-31.8,25.61c-8.3,6.67-10.16,14.63-5.83,20,5,6.2,12.93,4.31,22-2.95l30.35-24.43Z"/><path class="cls-2" d="M582.84,943c6.5,6.31,15.58,10.48,34.46,7,15.42-2.81,26.51-8.52,24.83-17.73-1.39-7.6-10.28-8.11-32.39-6.1-20.21,2-39.18,4.29-42.22-12.39s15.56-24.85,33.06-28c24.17-4.41,37.81,1.9,45.15,10.19l-6.06,4c-7.28-6.64-17.45-11.56-38-7.8-16.35,3-28.2,9.07-26.29,19.55,1.81,9.89,13.29,9.58,34.34,7.64,19.65-1.8,37.57-4,40.32,11.08s-15,23-31.88,26c-23.48,4.28-34.85-2-41.29-9.24Z"/><path class="cls-2" d="M465.17,902.33c5.48-4.93,18.1-15.12,42.23-13,27.51,2.37,43.16,18.4,41.29,40.08s-19.79,34.7-48.35,32.24c-24.13-2.09-34.37-14.13-37.68-17.94l6.1-3.93c6.65,5.86,14.31,13.8,32.26,15.35,23,2,38-8,39.63-26.41s-11.55-30.83-34.4-32.8c-17.95-1.55-28.23,5.9-35.86,11.35Z"/><path class="cls-2" d="M379.65,857.35A25.2,25.2,0,0,1,389,859c24.73,9,2.06,35.26,23.93,43.26l20.66,7.55,10.61-29,7.25,2.65-23.34,63.85L384.7,931.45c-13.73-5-22.55-14-18.09-26.17,4.54-12.42,17.12-13.43,30.75-8.45l1.64.6.08-.22c-9-10.51-.18-27.1-13.81-32.08a30.43,30.43,0,0,0-7.91-1.52Zm43.42,81.27,8.31-22.75-36.81-13.45c-8.13-3-17.12-3.27-20.38,5.63s3.93,14.14,12.06,17.11Z"/><path class="cls-2" d="M350.15,871.07l-23.93,33.52-6.29-4.49,23.93-33.51C354,852.4,347,841.23,332.73,831s-27.11-13.18-37.24,1l-23.93,33.52-6.29-4.49,23.93-33.52c14.28-20,32.86-12.19,47.33-1.86S364.42,851.08,350.15,871.07Z"/><path class="cls-2" d="M234.89,832,205.6,795.67c-11.38-14.12-11.68-25.3-3.48-31.91,6-4.84,14.31-4.62,21.15,1.44l.18-.15c-5.3-8.8-4.59-16.88,2.33-22.46,9.38-7.56,20.48-4.79,32.37,10l29.66,36.8Zm18.38-24.73-25.62-31.79c-6.68-8.29-14.63-10.14-20-5.81-6.19,5-4.3,12.93,3,22L235.06,822Zm5.2-4.19,19.4-15.63-24.74-30.7c-7.12-8.84-15-13.43-22.32-7.56s-3.69,15,2,22.1Z"/></svg>