<svg id="Layer_1" data-name="Layer 1" xmlns="http://www.w3.org/2000/svg" viewBox="0 0 1082 1081"><defs><style>.cls-1{fill:#9dd1a2;stroke:#1b1a16;stroke-miterlimit:10;stroke-width:5.17px;}.cls-2{fill:#353532;}</style></defs><circle class="cls-1" cx="540.59" cy="537.35" r="536.26"/><path class="cls-2" d="M147,424.93c-9,4-16.92,11.45-21.13,31.89-3.44,16.7-2.2,30.2,7.77,32.26C141.86,490.77,146,482,153,458.9c6.19-21.2,11.63-41.26,29.7-37.53s18.71,25.81,14.8,44.75c-5.39,26.17-17.31,37.36-28.66,41.38l-1.53-7.72c9.66-4.63,18.77-12.89,23.37-35.19,3.64-17.7,2.33-32.13-9-34.47-10.72-2.21-15.08,9.5-21.7,31.51-6.18,20.55-11.26,39.51-27.58,36.15S115.32,473.35,119.09,455c5.25-25.42,16.18-34.34,26.13-37.88Z"/><path class="cls-2" d="M211,407.73l-65.49-34.29,23.31-44.53c7.38-14.09,18.74-22.08,32.38-14.93s13.49,21.14,6.17,35.11L188,386.18l26.94,14.11Zm-55.4-38.49,26.16,13.7,19.77-37.77c4.36-8.34,5.63-18.16-4.52-23.47s-17.27,1.44-21.64,9.78Z"/><path class="cls-2" d="M252.45,332.71l-6,6.78L218,259.89l4-4.48,82.48,18.16L297.92,281l-23.15-5.28-30.51,34.68Zm-11-29.86L266.82,274l-39.25-8.94Z"/><path class="cls-2" d="M328.77,257.2l-39.5-54L260.2,224.41l-4.13-5.65,64.82-47.38L325,177l-28.87,21.1,39.5,54Z"/><path class="cls-2" d="M366.28,197.19l-15.9-41.87,7.85-3,15.9,41.87c6.73,17.73,21,18.14,38.88,11.37s28.27-16.59,21.54-34.31L418.66,129.4l7.85-3,15.89,41.87c9.49,25-8.78,37.09-26.86,44S375.76,222.17,366.28,197.19Z"/><path class="cls-2" d="M470.81,117.82l8.35-.85,6.71,66.47,56.34-5.68.71,7.09-64.69,6.52Z"/><path class="cls-2" d="M555.44,185.46l-9-1.26,50.89-67.49,5.92.84,30.13,78.9-9.83-1.38-8.3-22.25-45.74-6.44Zm18.9-25.61,38,5.37L598.3,127.51Z"/><path class="cls-2" d="M729,176.11c-2.17-9.61-8-18.81-27.2-26.9-15.71-6.61-29.21-8-33.15,1.38-3.26,7.74,4.53,13.5,25.86,24.82,19.6,10.18,38.23,19.39,31.08,36.4s-29,13.36-46.78,5.86c-24.63-10.36-33.3-24.22-35-36.13h7.87c2.68,10.38,9,20.91,30,29.74,16.65,7,31.07,8.51,35.56-2.16,4.24-10.09-6.4-16.63-26.72-27.39-19-10.05-36.59-18.7-30.13-34.07s27.28-12,44.52-4.74c23.93,10.06,30.56,22.51,32.1,33Z"/><path class="cls-2" d="M792.8,238.45c15.84-14.74,39.89-15,62.43,9.18s20.58,48.29,4.75,63-40.07,14.85-62.51-9.28S776.87,253.27,792.8,238.45Zm61.11,65.68c13.41-12.48,14.39-32-3.9-51.64s-37.81-20.09-51.23-7.61-14.3,32.07,3.9,51.64S840.49,316.61,853.91,304.13Z"/><path class="cls-2" d="M868.29,339.14,908.77,320l3.6,7.59-40.48,19.18c-17.13,8.12-16.41,22.42-8.24,39.67s18.79,26.86,35.92,18.74L940.05,386l3.6,7.59-40.48,19.18c-24.15,11.45-37.67-5.8-46-23.28S844.15,350.58,868.29,339.14Z"/><path class="cls-2" d="M887.31,474l65.9-11.73-6.31-35.45,6.89-1.23,14.07,79.05L961,505.86l-6.27-35.2-65.89,11.72Z"/><path class="cls-2" d="M200,724c17.58-12.62,41.47-9.88,60.77,17s14.32,50.49-3.25,63.11S216,813.79,196.73,787,182.37,736.71,200,724Zm52.33,72.87C267.25,786.2,270.68,767,255,745.17s-35-24.71-49.85-14-18.24,30-2.66,51.72S237.48,807.57,252.37,796.89Z"/><path class="cls-2" d="M291.29,785.43l7.91,6.2-12,71.14,66.34-28.49,7,5.49-78,32.8-4.7-3.69Z"/><path class="cls-2" d="M345.12,914l29.18-67.93,62.78,27-2.77,6.43L379.25,855.8,369.2,879.18,403.69,894l-2.86,6.67-34.49-14.82-10.7,24.9,59.51,25.57-2.81,6.55Z"/><path class="cls-2" d="M458.16,879.35l8,1,57.07,70.16,7.59-62.27,8.34,1-9,73.38-8-1-57-70-7.58,62.14-8.46-1Z"/><path class="cls-2" d="M638.08,893.54c-7.07-6.85-17-11.38-37.49-7.62-16.77,3.06-28.83,9.28-27,19.3,1.51,8.26,11.18,8.81,35.23,6.61,22-2.21,42.61-4.69,45.93,13.46s-16.92,27-36,30.51c-26.28,4.81-41.12-2-49.11-11.06l6.59-4.31c7.91,7.22,19,12.56,41.39,8.46,17.77-3.25,30.66-9.88,28.58-21.27-2-10.76-14.46-10.42-37.35-8.3-21.38,2-40.86,4.37-43.86-12s16.26-25,34.66-28.34c25.53-4.67,37.9,2.12,44.91,10Z"/><path class="cls-2" d="M721.9,881.54c-12.49-17.66-9.59-41.53,17.42-60.64s50.59-14,63.09,3.69,9.38,41.68-17.53,60.72S734.47,899.31,721.9,881.54Zm73.23-51.8c-10.58-15-29.77-18.53-51.69-3s-25,34.79-14.37,49.75,29.88,18.45,51.7,3S805.72,844.69,795.13,829.74Z"/><path class="cls-2" d="M794.58,779.34l4.76-6.45,89.18-15.07-50.43-37.31,5-6.75,59.44,44-4.77,6.44-89,15.05,50.33,37.22L854,823.3Z"/></svg>