<svg id="Layer_1" data-name="Layer 1" xmlns="http://www.w3.org/2000/svg" viewBox="0 0 1082 1081"><defs><style>.cls-1{fill:#80bfc2;stroke:#1b1a16;stroke-miterlimit:10;stroke-width:5.17px;}.cls-2{fill:#353532;}</style></defs><circle class="cls-1" cx="540.59" cy="540.47" r="536.26"/><path class="cls-2" d="M215.24,423.27,146,397.51l2.92-7.87,69.3,25.76Z"/><path class="cls-2" d="M240.72,368l-57.65-34-18.29,31-6-3.55,40.78-69.16,6,3.55-18.16,30.8,57.65,34Z"/><path class="cls-2" d="M225.67,253.28c10.29,8.93,14.28,23.34,7,32.16l-3.75-3.25c3.07-5.09,2.17-15.31-6.67-23L216.3,266l-9.14-7.92,10.35-11.91Z"/><path class="cls-2" d="M322.79,201.84c-9.43-2.88-20.29-2.4-36.85,10.3-13.52,10.38-21.42,21.41-15.22,29.49,5.11,6.66,14,2.75,34.37-10.18,18.55-12,35.78-23.6,47-9S349.37,254.26,334,266c-21.2,16.27-37.53,16.93-48.75,12.55l3.9-6.84c10.33,2.81,22.62,2.53,40.7-11.34,14.33-11,22.78-22.77,15.73-32-6.66-8.68-17.61-2.68-37,9.64-18.12,11.5-34.36,22.52-44.51,9.3s3.09-29.64,17.93-41c20.59-15.8,34.7-15.4,44.54-11.56Z"/><path class="cls-2" d="M444.67,208l-17.74-64.54L392.21,153l-1.85-6.75L467.77,125l1.86,6.75-34.48,9.47,17.74,64.54Z"/><path class="cls-2" d="M504.27,196.42,497.5,122.8l8.36-.77,6.77,73.62Z"/><path class="cls-2" d="M550.84,118.13l10.46,1.44,27.86,69,45.5-58.84,10,1.37L634.51,204.3l-8.31-1.14,8.53-61.89-44.08,57-6-.83-27-66.92-8.56,62-8.32-1.14Z"/><path class="cls-2" d="M659.56,214.19l31.59-66.84,61.78,29.19-3,6.33-54.19-25.61-10.87,23,33.94,16-3.1,6.56-33.94-16L670.2,211.34,728.76,239l-3,6.44Z"/><path class="cls-2" d="M788.35,299.47l48.65-46-24.74-26.18,5.09-4.8,55.15,58.35-5.09,4.81-24.56-26-48.64,46Z"/><path class="cls-2" d="M855.65,317.92c19.12-10.11,42.42-4.15,57.88,25.09s7.34,52-11.79,62.09S859.2,409,843.8,379.89,836.41,328.09,855.65,317.92Zm41.93,79.3c16.2-8.56,22.21-27.14,9.66-50.87S876,317.12,859.75,325.68s-22.15,27.26-9.65,50.88S881.38,405.79,897.58,397.22Z"/><path class="cls-2" d="M127.83,622.81l65.5-13.75-7.4-35.24,6.85-1.44L209.28,651l-6.85,1.44-7.35-35-65.5,13.74Z"/><path class="cls-2" d="M143.57,684.33l-3.79-8.2,84.3,6.23,2.5,5.43-50,68.06-4.16-9,14.21-19-19.36-41.94Zm31.76,2,16.1,34.9L215.5,689Z"/><path class="cls-2" d="M253.6,736.83l5.28,6.53-51.94,42,35.6,44L237,833.87l-40.88-50.56Z"/><path class="cls-2" d="M262.64,858l43.73-59.61,6.77,5-22.81,31.08,71.85,4.9,11.19,8.2-65.88-5.08L332,908.87,319.89,900l-21.34-58.26-12.88-.94L269.41,863Z"/><path class="cls-2" d="M512.3,960.47c-3.73,2.51-8.72,2.83-12.84,2-8-1.56-15.66-8.76-24.14-19.76-13.87,7.92-26.61,10.74-40.6,8C420,947.86,408.13,939.57,411.18,924c3.22-16.48,19.21-18.67,34.74-21.86-6.25-9.78-7.95-16.33-6.73-22.58,2.27-11.61,13.81-15.58,24.05-13.57,10.49,2,19.66,10.19,17.34,22.06-2.1,10.74-11.34,14.89-22.14,17.71,4.85,7,14.46,20.2,19.38,26.87a98.48,98.48,0,0,0,24.87-25.73l9.12,1.78c-7.59,11-16.88,21.33-29.57,29.87,7,9.4,12.24,15,19.61,16.41,3.87.76,7.46.3,11.87-1.69ZM471,936.83c-6.78-9.1-12.13-16.24-21.16-29-13.67,2.9-27.51,5.38-29.83,17.25-1.93,9.86,5.69,16.67,16.8,18.84C447,945.87,458.78,943.77,471,936.83Zm-16.28-36.76c9.42-2.44,16-5.68,17.49-13.18,1.15-5.86-1.2-12.42-10.32-14.2-9.61-1.88-13.66,4.2-14.58,8.94C446.26,887.13,450,892.65,454.75,900.07Z"/><path class="cls-2" d="M589,884.37l8.2-1.81,14.38,65.24,55.3-12.18,1.53,7-63.5,14Z"/><path class="cls-2" d="M696.38,930.74l-28.13-68.36,7.76-3.2,28.13,68.37Z"/><path class="cls-2" d="M770.94,825.18c-9.22-3.46-20.09-3.68-37.42,8-14.16,9.5-22.74,20-17.07,28.46,4.68,7,13.78,3.63,34.95-8,19.28-10.79,37.21-21.29,47.49-6s-4.74,31.53-20.8,42.31c-22.19,14.89-38.54,14.51-49.46,9.43l4.33-6.58c10.13,3.46,22.42,4,41.33-8.73,15-10.07,24.19-21.28,17.73-30.9-6.09-9.09-17.41-3.8-37.56,7.27-18.82,10.33-35.73,20.3-45,6.45s5-29.37,20.49-39.8c21.56-14.46,35.61-13.16,45.18-8.7Z"/><path class="cls-2" d="M854,820.29l-50.32-44.12-23.74,27.07-5.26-4.61,52.93-60.37,5.26,4.61-23.57,26.89,50.32,44.12Z"/><path class="cls-2" d="M901.72,757.65l-66-33.32,30.79-61,6.25,3.15-27,53.5,22.72,11.47L885.4,698l6.47,3.27L875,734.73l24.2,12.21,29.19-57.82,6.36,3.22Z"/><path class="cls-2" d="M874.08,642.71l1.44-7.89L948.91,582l-61.72-11.24,1.51-8.26,72.73,13.24L960,583.6l-73.24,52.75,61.59,11.22L946.82,656Z"/></svg>