<svg id="Layer_1" data-name="Layer 1" xmlns="http://www.w3.org/2000/svg" viewBox="0 0 1082 1081"><defs><style>.cls-1{fill:#e698c0;stroke:#1b1a16;stroke-miterlimit:10;stroke-width:5.17px;}.cls-2{fill:#353532;}</style></defs><circle class="cls-1" cx="541" cy="540.5" r="536.26"/><path class="cls-2" d="M199.79,363.7,141.11,379l5.22-10.05,49.41-12.64-18.07-47.79,4.81-9.27,21.23,56.89,25.65,13.3L225.43,377Z"/><path class="cls-2" d="M255.83,325l-55.18-49.19,45.47-51,5.23,4.66-39.89,44.74,19,16.93,25-28,5.41,4.83-25,28,20.23,18,43.1-48.34,5.32,4.74Z"/><path class="cls-2" d="M346.74,175.07c-9.16-3.62-20-4-37.54,7.34-14.31,9.26-23.06,19.63-17.52,28.17,4.56,7,13.71,3.86,35.07-7.4,19.44-10.47,37.54-20.68,47.57-5.19s-5.25,31.44-21.48,42c-22.43,14.52-38.76,13.88-49.6,8.62l4.43-6.51c10.08,3.63,22.35,4.33,41.47-8.06,15.16-9.82,24.52-20.88,18.23-30.6-5.95-9.19-17.35-4.08-37.68,6.66-19,10-36.05,19.71-45.11,5.72s5.44-29.29,21.14-39.46c21.78-14.11,35.81-12.58,45.31-8Z"/><path class="cls-2" d="M514.53,154.87,471.45,112.2l11.31-.65,36.08,36.07,31.89-39.92,10.42-.59L523,154.39l1.64,28.84-8.51.48Z"/><path class="cls-2" d="M576.47,183.3l14-72.6,67.1,12.92-1.32,6.87-58.86-11.33-4.81,25,36.87,7.1-1.37,7.12-36.87-7.1-5.12,26.62,63.6,12.24-1.34,7Z"/><path class="cls-2" d="M751.81,184.62c-1.58-9.73-6.8-19.26-25.51-28.52-15.28-7.56-28.66-9.78-33.18-.65-3.72,7.53,3.7,13.75,24.3,26.36,18.94,11.35,37,21.69,28.79,38.23s-29.71,11.57-47.05,3c-23.95-11.85-31.75-26.21-32.77-38.22l7.85.48c2,10.52,7.72,21.42,28.14,31.52,16.19,8,30.49,10.4,35.62,0,4.85-9.81-5.36-17-25-29C694.69,176.67,677.64,167,685,152s28-10.3,44.72-2c23.27,11.51,29.13,24.35,30,34.87Z"/><path class="cls-2" d="M854.89,318.56l14.56-58.86,6.34,9.38-12.47,49.45,50.62,6.93,5.85,8.64-60.12-8.48-23.92,16.19L831,334.74Z"/><path class="cls-2" d="M862.24,386.25l69.53-25.13L955,425.38l-6.58,2.38L928,371.4l-23.93,8.65,12.76,35.3-6.82,2.47-12.76-35.3-25.49,9.21,22,60.91-6.7,2.42Z"/><path class="cls-2" d="M950.62,537.71c7.56-6.31,13.11-15.67,11.53-36.48-1.29-17-6.21-29.64-16.36-28.87-8.37.63-9.94,10.19-10.28,34.34-.11,22.08.19,42.86-18.21,44.26s-25.1-19.66-26.56-39c-2-26.65,6.35-40.68,16.16-47.68l3.59,7c-8,7.12-14.49,17.56-12.77,40.28,1.37,18,6.61,31.53,18.15,30.65,10.92-.83,11.89-13.28,12.18-36.27.29-21.46,0-41.09,16.57-42.35s23.12,18.79,24.54,37.44c2,25.89-6.1,37.47-14.69,43.61Z"/><path class="cls-2" d="M888.37,694.74l58-17.6-4.81,10.25L892.71,702l19.95,47-4.43,9.45-23.48-56L858.6,690.19l3.63-7.72Z"/><path class="cls-2" d="M833.94,735.65l57.1,47-43.4,52.77-5.41-4.44,38.07-46.29-19.66-16.16-23.84,29-5.6-4.61,23.84-29-20.93-17.22-41.14,50-5.5-4.53Z"/><path class="cls-2" d="M749.09,889c9.3,3.25,20.17,3.21,37.22-8.81,13.94-9.83,22.28-20.53,16.41-28.85-4.84-6.86-13.86-3.31-34.76,8.78-19,11.23-36.7,22.14-47.33,7.06s4-31.63,19.82-42.78C762.28,809,778.63,809,789.67,813.8l-4.17,6.68c-10.22-3.23-22.51-3.44-41.13,9.69-14.76,10.41-23.68,21.83-17,31.3,6.31,8.94,17.5,3.39,37.39-8.15,18.57-10.75,35.25-21.11,44.85-7.49S805.32,875.32,790,886.1c-21.22,15-35.3,14-45,9.75Z"/><path class="cls-2" d="M582.19,915.86l44.73,40.94-11.27,1.08-37.48-34.6-30.28,41.15-10.39,1,36.2-48.75-2.78-28.75,8.49-.82Z"/><path class="cls-2" d="M519.17,889.91,508.07,963l-67.56-10.26,1.06-6.91,59.25,9,3.82-25.16L467.53,924l1.09-7.17,37.11,5.63,4.07-26.79-64-9.73,1.07-7Z"/><path class="cls-2" d="M343.91,895.52c2,9.65,7.55,19,26.61,27.48,15.57,7,29,8.63,33.18-.67,3.42-7.67-4.25-13.59-25.33-25.37-19.37-10.59-37.8-20.2-30.28-37.05s29.23-12.74,46.89-4.86c24.4,10.89,32.77,24.93,34.26,36.88l-7.86-.17c-2.46-10.43-8.57-21.09-29.37-30.37-16.5-7.36-30.87-9.18-35.59,1.4-4.46,10,6,16.76,26.12,28,18.75,10.45,36.17,19.48,29.38,34.71s-27.52,11.4-44.6,3.78c-23.71-10.57-30.07-23.16-31.39-33.64Z"/><path class="cls-2" d="M235.9,766.07l-11.39,59.56-6.84-9,9.81-50.05-50.92-4.21-6.3-8.31,60.49,5.25,23-17.45,5.15,6.8Z"/><path class="cls-2" d="M225.58,698.39l-68.47,27.88L131.34,663l6.48-2.64,22.6,55.51,23.57-9.6-14.16-34.77,6.72-2.73,14.16,34.76,25.1-10.22-24.43-60,6.6-2.69Z"/><path class="cls-2" d="M131.24,550.58c-7.3,6.61-12.47,16.17-10.07,36.9,2,16.94,7.38,29.38,17.49,28.21,8.34-1,9.53-10.58,8.92-34.72-.77-22.08-1.89-42.83,16.44-45s25.86,18.65,28.08,37.87c3.08,26.54-4.74,40.9-14.26,48.28L174,615.31c7.72-7.42,13.79-18.12,11.16-40.74-2.07-18-7.84-31.25-19.34-29.92-10.88,1.26-11.35,13.74-10.74,36.73.57,21.46,1.68,41-14.87,43s-23.85-17.86-26-36.44c-3-25.79,4.6-37.68,12.94-44.16Z"/></svg>