<svg xmlns="http://www.w3.org/2000/svg" viewBox="0 0 1082 1081"><defs><style>.a{fill:#9dd1a2;stroke:#1b1a16;stroke-miterlimit:10;stroke-width:5.17px;}.b{fill:#353532;}</style></defs><circle class="a" cx="541" cy="540.5" r="536.26"/><path class="b" d="M199.79,363.7,141.12,379l5.21-10.06,49.42-12.63-18.07-47.79,4.81-9.26,21.23,56.88,25.64,13.3L225.43,377Z"/><path class="b" d="M255.83,325l-55.18-49.2,45.47-51,5.23,4.66-39.88,44.74,19,16.93,25-28,5.41,4.83-25,28,20.23,18,43.1-48.35,5.32,4.74Z"/><path class="b" d="M346.75,175.07c-9.17-3.62-20-4-37.55,7.34-14.31,9.27-23.06,19.63-17.52,28.18,4.56,7,13.71,3.85,35.07-7.41,19.45-10.47,37.55-20.68,47.57-5.19s-5.25,31.45-21.48,42c-22.43,14.52-38.76,13.88-49.6,8.62l4.43-6.5c10.08,3.63,22.36,4.32,41.47-8.06,15.17-9.83,24.53-20.89,18.23-30.61-5.95-9.18-17.34-4.08-37.67,6.67-19,10-36.05,19.71-45.11,5.72s5.43-29.3,21.13-39.46c21.79-14.11,35.81-12.59,45.32-8Z"/><path class="b" d="M514.54,154.87,471.46,112.2l11.3-.64,36.08,36.06,31.89-39.92,10.42-.59-38.1,47.28,1.63,28.84-8.51.48Z"/><path class="b" d="M576.47,183.3l14-72.6,67.11,12.92-1.33,6.87-58.85-11.33-4.81,25,36.86,7.1-1.37,7.12-36.86-7.09-5.13,26.61,63.61,12.25-1.35,7Z"/><path class="b" d="M751.81,184.62c-1.58-9.72-6.8-19.26-25.5-28.51-15.29-7.57-28.67-9.78-33.18-.66-3.73,7.53,3.7,13.76,24.29,26.36,19,11.36,37,21.69,28.79,38.23s-29.71,11.57-47.05,3c-23.95-11.85-31.75-26.21-32.77-38.22l7.86.48c2,10.52,7.71,21.42,28.13,31.52,16.19,8,30.49,10.4,35.62,0,4.86-9.81-5.36-17-25-29C694.7,176.67,677.64,167,685,152s28-10.3,44.72-2c23.27,11.51,29.13,24.35,30,34.87Z"/><path class="b" d="M854.89,318.56l14.56-58.86,6.34,9.38-12.46,49.46L914,325.46l5.84,8.64-60.12-8.48-23.92,16.19L831,334.75Z"/><path class="b" d="M862.24,386.26l69.53-25.14L955,425.38l-6.58,2.38L928,371.4l-23.93,8.65,12.76,35.3-6.82,2.47-12.76-35.3-25.49,9.21,22,60.91-6.7,2.42Z"/><path class="b" d="M950.62,537.71c7.57-6.31,13.11-15.67,11.53-36.48-1.29-17-6.21-29.64-16.36-28.87-8.37.63-9.94,10.2-10.28,34.34-.11,22.09.19,42.86-18.21,44.26s-25.1-19.66-26.56-39c-2-26.65,6.36-40.68,16.16-47.68l3.59,7c-8,7.12-14.49,17.57-12.76,40.28,1.36,18,6.6,31.53,18.14,30.65,10.92-.83,11.89-13.28,12.18-36.27.29-21.46,0-41.09,16.57-42.35s23.12,18.79,24.54,37.45c2,25.88-6.09,37.47-14.69,43.61Z"/><path class="b" d="M888.37,694.74l58-17.6-4.82,10.25L892.71,702l19.95,47-4.43,9.45-23.48-56-26.14-12.27,3.62-7.72Z"/><path class="b" d="M833.94,735.65l57.1,47-43.4,52.78-5.41-4.45,38.07-46.29-19.66-16.16-23.84,29-5.6-4.61,23.84-29-20.93-17.22-41.14,50-5.5-4.53Z"/><path class="b" d="M749.09,889c9.3,3.25,20.17,3.21,37.23-8.81,13.93-9.83,22.27-20.53,16.4-28.85-4.84-6.86-13.85-3.31-34.76,8.78-19,11.23-36.7,22.14-47.33,7.06s4-31.63,19.82-42.78C762.29,809,778.63,809,789.67,813.8l-4.17,6.68c-10.22-3.23-22.51-3.44-41.12,9.69-14.77,10.41-23.69,21.83-17,31.3,6.31,8.94,17.5,3.39,37.39-8.15,18.57-10.75,35.25-21.11,44.85-7.49S805.32,875.32,790,886.1c-21.22,15-35.29,14-45,9.75Z"/><path class="b" d="M582.15,915.87l44.73,40.94-11.27,1.09-37.48-34.61-30.29,41.15-10.38,1,36.2-48.75-2.77-28.75,8.48-.82Z"/><path class="b" d="M519.17,889.91,508.07,963l-67.55-10.25,1.05-6.92,59.25,9,3.82-25.16L467.53,924l1.09-7.17,37.11,5.63,4.07-26.79-64-9.73,1.07-7Z"/><path class="b" d="M343.87,895.49c2,9.66,7.55,19,26.61,27.49,15.57,6.95,29,8.64,33.18-.66,3.42-7.67-4.24-13.6-25.32-25.38-19.38-10.59-37.8-20.21-30.28-37.06S377.29,847.15,395,855c24.4,10.89,32.77,24.94,34.26,36.89l-7.87-.17c-2.45-10.43-8.56-21.1-29.36-30.38-16.5-7.36-30.88-9.18-35.59,1.39-4.46,10,6,16.77,26.12,28,18.74,10.46,36.17,19.49,29.37,34.71s-27.52,11.41-44.6,3.78c-23.71-10.58-30.07-23.17-31.39-33.65Z"/><path class="b" d="M235.9,766.07l-11.39,59.56-6.84-9,9.81-50.05-50.92-4.21-6.3-8.31,60.49,5.25,23-17.45,5.14,6.8Z"/><path class="b" d="M225.58,698.39l-68.47,27.88L131.34,663l6.48-2.64,22.6,55.51,23.57-9.6-14.15-34.77,6.71-2.73,14.16,34.76,25.1-10.22-24.42-60,6.6-2.69Z"/><path class="b" d="M131.25,550.58c-7.31,6.61-12.48,16.17-10.08,36.9,2,16.94,7.38,29.38,17.49,28.21,8.34-1,9.53-10.58,8.92-34.72-.77-22.07-1.89-42.83,16.44-45s25.86,18.65,28.08,37.87c3.08,26.54-4.74,40.9-14.26,48.28L174,615.31c7.72-7.42,13.79-18.12,11.17-40.74-2.08-18-7.85-31.25-19.35-29.92-10.87,1.26-11.35,13.74-10.74,36.73.57,21.46,1.69,41.06-14.87,43s-23.85-17.86-26-36.44c-3-25.79,4.6-37.68,12.94-44.16Z"/></svg>